<?xml version="1.0" encoding="UTF-8" standalone="no"?>
<svg
   xmlns:dc="http://purl.org/dc/elements/1.1/"
   xmlns:cc="http://creativecommons.org/ns#"
   xmlns:rdf="http://www.w3.org/1999/02/22-rdf-syntax-ns#"
   xmlns:svg="http://www.w3.org/2000/svg"
   xmlns="http://www.w3.org/2000/svg"
   xmlns:sodipodi="http://sodipodi.sourceforge.net/DTD/sodipodi-0.dtd"
   xmlns:inkscape="http://www.inkscape.org/namespaces/inkscape"
   viewBox="0 0 500 500"
   version="1.1"
   id="svg2417"
   sodipodi:docname="01d.svg"
   inkscape:version="1.0.2-2 (e86c870879, 2021-01-15)">
  <metadata
     id="metadata2421">
    <rdf:RDF>
      <cc:Work
         rdf:about="">
        <dc:format>image/svg+xml</dc:format>
        <dc:type
           rdf:resource="http://purl.org/dc/dcmitype/StillImage" />
        <dc:title></dc:title>
      </cc:Work>
    </rdf:RDF>
  </metadata>
  <sodipodi:namedview
     pagecolor="#ffffff"
     bordercolor="#666666"
     borderopacity="1"
     objecttolerance="10"
     gridtolerance="10"
     guidetolerance="10"
     inkscape:pageopacity="0"
     inkscape:pageshadow="2"
     inkscape:window-width="1368"
     inkscape:window-height="850"
     id="namedview2419"
     showgrid="false"
     inkscape:zoom="1.28"
     inkscape:cx="93.359375"
     inkscape:cy="254.16667"
     inkscape:window-x="-6"
     inkscape:window-y="-6"
     inkscape:window-maximized="1"
     inkscape:current-layer="svg2417" />
  <defs
     id="defs2354">
    <style
       id="style2352">.cls-1{fill:#f8b62d;}.cls-2{fill:#231815;}.cls-3{font-size:161.72px;fill:#fff;stroke:#231815;stroke-miterlimit:10;font-family:DINAlternate-Bold, DIN Alternate;font-weight:700;}.cls-4{letter-spacing:-0.02em;}.cls-5{letter-spacing:-0.07em;}</style>
  </defs>
  <g
     data-name="图层 1"
     id="图层_1"
     transform="matrix(1.3,0,0,1.3,-75,-75)">
    <circle
       class="cls-1"
       cx="250"
       cy="250"
       r="84.800003"
       id="circle2358" />
    <path
       class="cls-2"
       d="m 327.3,250 c -0.26,31.93 -20.27,61.69 -50.61,72.59 a 78.28,78.28 0 0 1 -86.62,-23.7 c -20.52,-24.83 -22.88,-61.14 -6.38,-88.66 16.5,-27.52 49.76,-42.55 81.4,-36.08 A 78.17,78.17 0 0 1 327.3,250 c 0.08,9.65 15.08,9.67 15,0 a 93.46,93.46 0 0 0 -61,-86.83 c -36.08,-13.29 -78.52,-1.52 -102.67,28.34 -24.15,29.86 -27.79,72.65 -7.9,105.83 20,33.39 59.57,50.62 97.68,43.11 C 311.16,332 342,293.16 342.3,250 c 0.08,-9.65 -14.92,-9.66 -15,0 z"
       id="path2360" />
    <path
       class="cls-2"
       d="m 257.5,131.39 v -32 c 0,-9.65 -15,-9.67 -15,0 v 32 c 0,9.65 15,9.67 15,0 z"
       id="path2362" />
    <line
       class="cls-2"
       x1="190.69"
       x2="174.71001"
       y1="147.28"
       y2="119.59"
       id="line2364" />
    <path
       class="cls-2"
       d="m 197.17,143.49 -16,-27.69 c -4.83,-8.36 -17.79,-0.81 -13,7.57 l 16,27.69 c 4.83,8.36 17.79,0.81 13,-7.57 z"
       id="path2366" />
    <line
       class="cls-2"
       x1="147.28"
       x2="119.59"
       y1="190.69"
       y2="174.71001"
       id="line2368" />
    <path
       class="cls-2"
       d="m 151.06,184.22 -27.69,-16 c -8.38,-4.84 -15.94,8.12 -7.57,13 l 27.69,16 c 8.38,4.84 15.94,-8.12 7.57,-13 z"
       id="path2370" />
    <line
       class="cls-2"
       x1="131.39"
       x2="99.419998"
       y1="250"
       y2="250"
       id="line2372" />
    <path
       class="cls-2"
       d="m 131.39,242.5 h -32 c -9.65,0 -9.67,15 0,15 h 32 c 9.65,0 9.67,-15 0,-15 z"
       id="path2374" />
    <line
       class="cls-2"
       x1="147.28"
       x2="119.59"
       y1="309.31"
       y2="325.29001"
       id="line2376" />
    <path
       class="cls-2"
       d="m 143.49,302.83 -27.69,16 c -8.36,4.83 -0.81,17.79 7.57,13 l 27.69,-16 c 8.36,-4.83 0.81,-17.79 -7.57,-13 z"
       id="path2378" />
    <line
       class="cls-2"
       x1="190.69"
       x2="174.71001"
       y1="352.72"
       y2="380.41"
       id="line2380" />
    <path
       class="cls-2"
       d="m 184.22,348.94 -16,27.69 c -4.84,8.38 8.12,15.94 13,7.57 l 16,-27.69 c 4.84,-8.38 -8.12,-15.94 -13,-7.57 z"
       id="path2382" />
    <line
       class="cls-2"
       x1="250"
       x2="250"
       y1="368.60999"
       y2="400.57999"
       id="line2384" />
    <path
       class="cls-2"
       d="m 242.5,368.61 v 32 c 0,9.65 15,9.67 15,0 v -32 c 0,-9.65 -15,-9.67 -15,0 z"
       id="path2386" />
    <line
       class="cls-2"
       x1="309.31"
       x2="325.29001"
       y1="352.72"
       y2="380.41"
       id="line2388" />
    <path
       class="cls-2"
       d="m 302.83,356.51 16,27.69 c 4.83,8.36 17.79,0.81 13,-7.57 l -16,-27.69 c -4.83,-8.36 -17.79,-0.81 -13,7.57 z"
       id="path2390" />
    <line
       class="cls-2"
       x1="352.72"
       x2="380.41"
       y1="309.31"
       y2="325.29001"
       id="line2392" />
    <path
       class="cls-2"
       d="m 348.94,315.78 27.69,16 c 8.38,4.84 15.94,-8.12 7.57,-13 l -27.69,-16 c -8.38,-4.84 -15.94,8.12 -7.57,13 z"
       id="path2394" />
    <line
       class="cls-2"
       x1="368.60999"
       x2="400.57999"
       y1="250"
       y2="250"
       id="line2396" />
    <path
       class="cls-2"
       d="m 368.61,257.5 h 32 c 9.65,0 9.67,-15 0,-15 h -32 c -9.65,0 -9.67,15 0,15 z"
       id="path2398" />
    <line
       class="cls-2"
       x1="352.72"
       x2="380.41"
       y1="190.69"
       y2="174.71001"
       id="line2400" />
    <path
       class="cls-2"
       d="m 356.51,197.17 27.69,-16 c 8.36,-4.83 0.81,-17.79 -7.57,-13 l -27.69,16 c -8.36,4.83 -0.81,17.79 7.57,13 z"
       id="path2402" />
    <line
       class="cls-2"
       x1="309.31"
       x2="325.29001"
       y1="147.28"
       y2="119.59"
       id="line2404" />
    <path
       class="cls-2"
       d="m 315.78,151.06 16,-27.69 c 4.84,-8.38 -8.12,-15.94 -13,-7.57 l -16,27.69 c -4.84,8.38 8.12,15.94 13,7.57 z"
       id="path2406" />
    <text
       class="cls-3"
       transform="translate(-3.4,-30.77)"
       id="text2414"><tspan
         class="cls-4"
         id="tspan2408" /><tspan
         class="cls-5"
         x="98.940002"
         y="0"
         id="tspan2410" /><tspan
         x="185.56"
         y="0"
         id="tspan2412" /></text>
  </g>
</svg>
