<?xml version="1.0" encoding="UTF-8" standalone="no"?>
<svg
   xmlns:dc="http://purl.org/dc/elements/1.1/"
   xmlns:cc="http://creativecommons.org/ns#"
   xmlns:rdf="http://www.w3.org/1999/02/22-rdf-syntax-ns#"
   xmlns:svg="http://www.w3.org/2000/svg"
   xmlns="http://www.w3.org/2000/svg"
   xmlns:sodipodi="http://sodipodi.sourceforge.net/DTD/sodipodi-0.dtd"
   xmlns:inkscape="http://www.inkscape.org/namespaces/inkscape"
   viewBox="0 0 500 500"
   version="1.1"
   id="svg9369"
   sodipodi:docname="02d.svg"
   inkscape:version="1.0.2-2 (e86c870879, 2021-01-15)">
  <metadata
     id="metadata9373">
    <rdf:RDF>
      <cc:Work
         rdf:about="">
        <dc:format>image/svg+xml</dc:format>
        <dc:type
           rdf:resource="http://purl.org/dc/dcmitype/StillImage" />
        <dc:title></dc:title>
      </cc:Work>
    </rdf:RDF>
  </metadata>
  <sodipodi:namedview
     pagecolor="#ffffff"
     bordercolor="#666666"
     borderopacity="1"
     objecttolerance="10"
     gridtolerance="10"
     guidetolerance="10"
     inkscape:pageopacity="0"
     inkscape:pageshadow="2"
     inkscape:window-width="1368"
     inkscape:window-height="850"
     id="namedview9371"
     showgrid="false"
     inkscape:zoom="1.28"
     inkscape:cx="111.56404"
     inkscape:cy="250"
     inkscape:window-x="-6"
     inkscape:window-y="-6"
     inkscape:window-maximized="1"
     inkscape:current-layer="svg9369" />
  <defs
     id="defs9322">
    <style
       id="style9320">.cls-1{fill:#f8b62d;}.cls-1,.cls-2{stroke:#231815;stroke-miterlimit:10;}.cls-2,.cls-4{fill:#231815;}.cls-3{fill:#fff;}</style>
  </defs>
  <g
     data-name="图层 1"
     id="图层_1"
     transform="matrix(1.3,0,0,1.3,-75.040953,-75.039303)">
    <path
       class="cls-1"
       d="m 236.75,272.11 a 82.26,82.26 0 0 1 79.25,-30.47 76.19,76.19 0 0 1 10.36,2.59 82.65,82.65 0 0 0 -64.92,-68.08 C 228.11,169.4 193.17,185 175.64,214 a 83,83 0 0 0 -4.41,76.58 c 0.47,-0.46 0.94,-0.92 1.42,-1.37 a 70.52,70.52 0 0 1 64.1,-17.1 z"
       id="path9326" />
    <path
       class="cls-2"
       d="M 171.23,290.58 A 83,83 0 0 1 175.64,214 c 17.54,-28.95 52.48,-44.6 85.76,-37.86 a 82.65,82.65 0 0 1 64.92,68.08 78.27,78.27 0 0 1 15.84,7.19 98,98 0 0 0 -63.86,-86.09 c -37.69,-13.82 -81.9,-1.62 -107.27,29.43 -25,30.6 -29.26,74.3 -10,108.8 a 67.76,67.76 0 0 1 10.2,-12.97 z"
       id="path9328" />
    <path
       class="cls-2"
       d="M 253.07,131.54 V 97.89 c 0,-9.65 -15,-9.67 -15,0 v 33.65 c 0,9.65 15,9.67 15,0 z m -7.5,-33.65 z"
       id="path9330" />
    <path
       class="cls-2"
       d="m 176.66,152.05 c 4.83,8.36 17.79,0.81 13,-7.57 l -16.83,-29.15 c -4.83,-8.36 -17.79,-0.81 -13,7.57 z m 6.48,-3.79 -16.83,-29.15 z"
       id="path9332" />
    <path
       class="cls-2"
       d="m 141.22,187.49 -29.15,-16.83 c -8.37,-4.84 -15.94,8.12 -7.57,13 l 29.15,16.83 c 8.35,4.79 15.94,-8.17 7.57,-13 z M 108.29,177.14 137.44,194 Z"
       id="path9334" />
    <path
       class="cls-2"
       d="m 87.06,263.9 h 33.65 c 9.65,0 9.67,-15 0,-15 H 87.06 c -9.66,0 -9.67,15 0,15 z m 33.65,-7.5 z"
       id="path9336" />
    <path
       class="cls-2"
       d="m 112.08,342.13 29.15,-16.83 c 8.36,-4.83 0.81,-17.79 -7.57,-13 l -29.15,16.83 c -8.36,4.87 -0.82,17.87 7.57,13 z m 25.36,-23.3 -29.15,16.83 z"
       id="path9338" />
    <path
       class="cls-2"
       d="m 370.42,263.9 h 33.65 c 9.65,0 9.67,-15 0,-15 h -33.65 c -9.65,0 -9.67,15 0,15 z m 0,-7.5 z"
       id="path9340" />
    <path
       class="cls-2"
       d="m 357.48,200.44 29.15,-16.83 c 8.36,-4.83 0.81,-17.79 -7.57,-13 l -29.15,16.83 c -8.36,4.88 -0.81,17.84 7.57,13 z M 382.84,177.14 353.7,194 Z"
       id="path9342" />
    <path
       class="cls-2"
       d="M 314.47,152.05 331.3,122.9 c 4.84,-8.37 -8.12,-15.94 -13,-7.57 l -16.83,29.15 c -4.79,8.38 8.17,15.94 13,7.57 z M 324.82,119.12 308,148.27 Z"
       id="path9344" />
    <path
       class="cls-2"
       d="m 377.25,293.37 c 0.54,1.41 1.05,2.84 1.51,4.29 a 7.08,7.08 0 0 1 0.16,4.09 51.75,51.75 0 0 1 -17.73,100.37 H 220.54 a 62.23,62.23 0 0 1 -55,-91.35 c -1,-1.44 -1.95,-2.9 -2.86,-4.4 -0.56,-0.93 -1.1,-1.87 -1.62,-2.81 a 71.25,71.25 0 0 0 -9.23,48 69.75,69.75 0 0 0 38.58,51.19 c 11.68,5.47 23.78,6.86 36.45,6.86 h 123.45 c 9.8,0 19.5,0.28 29,-2.82 24.63,-8.06 41.85,-31.83 41.13,-57.87 a 59.93,59.93 0 0 0 -43.19,-55.55 z"
       id="path9346" />
    <path
       class="cls-2"
       d="m 220.54,277.65 a 62.16,62.16 0 0 1 19.18,3 73.75,73.75 0 0 1 87.48,-28.16 82.09,82.09 0 0 0 -0.89,-8.29 76.19,76.19 0 0 0 -10.31,-2.56 82.26,82.26 0 0 0 -79.21,30.47 c 1.67,0.38 3.32,0.82 5,1.33 l -8.47,3.45 q 1.68,-2.46 3.5,-4.78 a 70.52,70.52 0 0 0 -64.11,17.1 c -0.48,0.45 -1,0.91 -1.42,1.38 a 78.51,78.51 0 0 0 3.63,7.06 62.05,62.05 0 0 1 45.62,-20 z"
       id="path9348" />
    <path
       class="cls-2"
       d="m 241.72,273.44 c -1.65,-0.51 -3.3,-0.95 -5,-1.33 q -1.82,2.32 -3.5,4.78 z"
       id="path9350" />
    <path
       class="cls-2"
       d="m 342.22,260.28 a 74,74 0 0 1 26.78,32.48 7.49,7.49 0 0 1 4.52,-0.35 c 1.26,0.27 2.5,0.6 3.73,1 a 83.68,83.68 0 0 0 -35.1,-42 c 0.1,1.65 0.17,3.31 0.18,5 -0.01,1.29 -0.05,2.59 -0.11,3.87 z"
       id="path9352" />
    <path
       class="cls-2"
       d="m 369,292.76 a 73,73 0 0 1 2.53,6.89 51.3,51.3 0 0 1 7.39,2.1 7.08,7.08 0 0 0 -0.16,-4.09 c -0.46,-1.45 -1,-2.87 -1.51,-4.29 -1.23,-0.35 -2.47,-0.68 -3.73,-1 a 7.49,7.49 0 0 0 -4.52,0.39 z"
       id="path9354" />
    <path
       class="cls-2"
       d="m 342.33,256.4 c 0.06,-8.29 -11,-9.46 -14.15,-3.5 a 73.42,73.42 0 0 1 13.39,7 7.44,7.44 0 0 0 0.76,-3.5 z"
       id="path9356" />
    <path
       class="cls-2"
       d="m 342.22,260.28 c 0.06,-1.29 0.11,-2.59 0.12,-3.89 a 7.44,7.44 0 0 1 -0.77,3.46 z"
       id="path9358" />
    <path
       class="cls-2"
       d="m 165.54,310.77 a 62.36,62.36 0 0 1 9.32,-13.13 78.51,78.51 0 0 1 -3.63,-7.06 67.76,67.76 0 0 0 -10.17,13 c 0.53,0.94 1.06,1.88 1.62,2.81 0.91,1.48 1.88,2.94 2.86,4.38 z"
       id="path9360" />
    <path
       class="cls-2"
       d="m 327.21,252.51 1,0.38 c 3.17,-6 14.22,-4.79 14.15,3.5 0,-1.67 -0.08,-3.33 -0.18,-5 a 78.27,78.27 0 0 0 -15.84,-7.19 82.09,82.09 0 0 1 0.87,8.31 z"
       id="path9362" />
    <path
       class="cls-3"
       d="m 405.36,347.5 c 1,19.06 -10.19,37.28 -28.18,44.17 -8.12,3.11 -16.25,2.95 -24.71,2.95 H 237 c -5.48,0 -11,0.05 -16.45,0 a 54.71,54.71 0 0 1 -50,-77.11 53.89,53.89 0 0 1 6,-10.38 c 0.78,-1.05 1.59,-2.06 2.44,-3 14.38,-16.69 37.56,-22.69 58.65,-16.18 3.34,1 6.63,-0.74 8.47,-3.45 14.64,-21.53 41.42,-33.13 67.15,-28.1 a 66.85,66.85 0 0 1 13.82,4.31 c 0.87,0.38 1.73,0.77 2.57,1.18 0.84,0.41 1.94,1 2.89,1.49 a 67,67 0 0 1 31.6,38.11 6.37,6.37 0 0 0 5.31,5.44 c 19.48,4.16 34.8,20.35 35.91,40.57 z"
       id="path9364" />
    <path
       class="cls-4"
       d="M 378.92,301.75 A 51.75,51.75 0 0 1 361.19,402.12 H 220.54 a 62.24,62.24 0 1 1 19.18,-121.44 73.75,73.75 0 0 1 87.48,-28.16 l 1,0.38 a 72.34,72.34 0 0 1 13.39,7 c 0.22,0.14 0.44,0.28 0.65,0.43 A 73.93,73.93 0 0 1 369,292.77 c 0.95,2.24 1.8,4.54 2.53,6.89 a 50.84,50.84 0 0 1 7.39,2.09 z m -1.74,89.92 c 18,-6.89 29.22,-25.11 28.18,-44.17 -1.11,-20.22 -16.43,-36.41 -35.82,-40.61 a 6.37,6.37 0 0 1 -5.31,-5.44 67,67 0 0 0 -31.6,-38.11 c -1,-0.52 -1.91,-1 -2.89,-1.49 -0.98,-0.49 -1.7,-0.8 -2.57,-1.18 a 66.85,66.85 0 0 0 -13.82,-4.31 c -25.73,-5 -52.51,6.57 -67.15,28.1 -1.84,2.71 -5.13,4.48 -8.47,3.45 -21.09,-6.51 -44.27,-0.51 -58.65,16.18 -0.85,1 -1.66,2 -2.44,3 a 53.89,53.89 0 0 0 -6,10.38 54.71,54.71 0 0 0 50,77.11 c 5.48,0.05 11,0 16.45,0 h 115.38 c 8.46,0.04 16.59,0.2 24.71,-2.91 z"
       id="path9366" />
  </g>
</svg>
