<?xml version="1.0" encoding="UTF-8" standalone="no"?>
<svg
   xmlns:dc="http://purl.org/dc/elements/1.1/"
   xmlns:cc="http://creativecommons.org/ns#"
   xmlns:rdf="http://www.w3.org/1999/02/22-rdf-syntax-ns#"
   xmlns:svg="http://www.w3.org/2000/svg"
   xmlns="http://www.w3.org/2000/svg"
   xmlns:sodipodi="http://sodipodi.sourceforge.net/DTD/sodipodi-0.dtd"
   xmlns:inkscape="http://www.inkscape.org/namespaces/inkscape"
   viewBox="0 0 500 500"
   version="1.1"
   id="svg8443"
   sodipodi:docname="02n.svg"
   inkscape:version="1.0.2-2 (e86c870879, 2021-01-15)">
  <metadata
     id="metadata8447">
    <rdf:RDF>
      <cc:Work
         rdf:about="">
        <dc:format>image/svg+xml</dc:format>
        <dc:type
           rdf:resource="http://purl.org/dc/dcmitype/StillImage" />
      </cc:Work>
    </rdf:RDF>
  </metadata>
  <sodipodi:namedview
     pagecolor="#ffffff"
     bordercolor="#666666"
     borderopacity="1"
     objecttolerance="10"
     gridtolerance="10"
     guidetolerance="10"
     inkscape:pageopacity="0"
     inkscape:pageshadow="2"
     inkscape:window-width="1368"
     inkscape:window-height="850"
     id="namedview8445"
     showgrid="false"
     inkscape:zoom="1.236"
     inkscape:cx="247.97735"
     inkscape:cy="252.42718"
     inkscape:window-x="-6"
     inkscape:window-y="-6"
     inkscape:window-maximized="1"
     inkscape:current-layer="svg8443" />
  <defs
     id="defs8350">
    <style
       id="style8348">.cls-1{fill:#231815;}.cls-2{fill:#fff;}.cls-3{fill:#f4ec90;}</style>
    <meshgradient
       inkscape:collect="always"
       id="meshgradient9065"
       gradientUnits="userSpaceOnUse"
       x="89.571503"
       y="110.63453">
      <meshrow
         id="meshrow9067">
        <meshpatch
           id="meshpatch9069">
          <stop
             path="c 106.853,0  213.705,0  320.558,0"
             style="stop-color:#ffffff;stop-opacity:1"
             id="stop9071" />
          <stop
             path="c 0,93.034  0,186.068  0,279.102"
             style="stop-color:#000000;stop-opacity:1"
             id="stop9073" />
          <stop
             path="c -106.853,0  -213.705,0  -320.558,0"
             style="stop-color:#ffffff;stop-opacity:1"
             id="stop9075" />
          <stop
             path="c 0,-93.034  0,-186.068  0,-279.102"
             style="stop-color:#000000;stop-opacity:1"
             id="stop9077" />
        </meshpatch>
      </meshrow>
    </meshgradient>
    <meshgradient
       inkscape:collect="always"
       id="meshgradient9093"
       gradientUnits="userSpaceOnUse"
       x="89.571503"
       y="110.63453">
      <meshrow
         id="meshrow9105">
        <meshpatch
           id="meshpatch9103">
          <stop
             path="c 106.853,0  213.705,0  320.558,0"
             style="stop-color:#ffffff;stop-opacity:1"
             id="stop9095" />
          <stop
             path="c 0,93.034  0,186.068  0,279.102"
             style="stop-color:#000000;stop-opacity:1"
             id="stop9097" />
          <stop
             path="c -106.853,0  -213.705,0  -320.558,0"
             style="stop-color:#ffffff;stop-opacity:1"
             id="stop9099" />
          <stop
             path="c 0,-93.034  0,-186.068  0,-279.102"
             style="stop-color:#000000;stop-opacity:1"
             id="stop9101" />
        </meshpatch>
      </meshrow>
    </meshgradient>
  </defs>
  <title
     id="title8352" />
  <g
     id="g8494"
     style="fill:url(#meshgradient9065);fill-opacity:1;stroke:#231815;stroke-opacity:1"
     transform="matrix(1.3,0,0,1.3,-74.956384,-75.054479)">
    <g
       data-name="图层 1"
       id="图层_1"
       style="fill:url(#meshgradient9093);fill-opacity:1;stroke:#231815;stroke-opacity:1">
      <path
         class="cls-1"
         d="m 233.5,115.74 a 127.86,127.86 0 0 0 -5.81,17.37 122.29,122.29 0 0 1 16.83,-8.9 z"
         id="path8354"
         style="fill-opacity:1;stroke:#231815;stroke-opacity:1" />
      <path
         class="cls-2"
         d="m 295.5,266 a 66.74,66.74 0 0 1 7.39,15.58 6.36,6.36 0 0 0 5.3,5.44 46.89,46.89 0 0 1 15.27,6.28 43.64,43.64 0 0 1 20.54,34.35 44.11,44.11 0 0 1 -0.14,6.61 45.38,45.38 0 0 1 -6.43,19.39 43.63,43.63 0 0 1 -21.61,18.17 c -8.12,3.11 -16.26,2.95 -24.72,2.95 H 175.66 c -5.49,0 -11,0.05 -16.46,0 a 54.77,54.77 0 0 1 -43.91,-87.49 c 11.19,-15.07 29,-22.65 47.07,-21.71 a 58.1,58.1 0 0 1 14,2.49 6.7,6.7 0 0 0 2.83,0.23 8.3,8.3 0 0 0 5.64,-3.68 67.14,67.14 0 0 1 58.56,-29.16 62.92,62.92 0 0 1 8.6,1.06 67.21,67.21 0 0 1 43.51,29.49 z"
         id="path8356"
         style="fill-opacity:1;stroke:#231815;stroke-opacity:1" />
      <path
         class="cls-1"
         d="m 409.51,283.83 q -1,2.33 -2.1,4.6 l -2.41,-1.16 -8.47,-11 -0.56,-1.48 c 1.69,-0.62 3.37,-1.27 5,-2 6.89,-2.79 10.74,5.95 8.54,11.04 z"
         id="path8358"
         style="fill-opacity:1;stroke:#231815;stroke-opacity:1" />
      <path
         class="cls-1"
         d="m 405,287.27 2.38,1.16 a 132.51,132.51 0 0 1 -49.78,55.07 57.19,57.19 0 0 0 1.44,-14.42 c 0,-1.47 -0.14,-2.93 -0.29,-4.38 a 119.71,119.71 0 0 0 28.89,-31.62 126.8,126.8 0 0 0 17.36,-5.81 z"
         id="path8360"
         style="fill-opacity:1;stroke:#231815;stroke-opacity:1" />
      <path
         class="cls-1"
         d="m 396.56,276.26 8.47,11 a 126.8,126.8 0 0 1 -17.36,5.81 123.82,123.82 0 0 0 8.89,-16.81 z"
         id="path8362"
         style="fill-opacity:1;stroke:#231815;stroke-opacity:1" />
      <path
         class="cls-1"
         d="m 373.24,183.2 a 6.73,6.73 0 0 1 -4.65,-6.31 c 0.63,-0.25 1.26,-0.5 1.89,-0.73 a 10.73,10.73 0 0 1 2,-0.67 c 5.59,-0.67 -1.95,7 1.38,7.91 z"
         id="path8364"
         style="fill-opacity:1;stroke:#231815;stroke-opacity:1" />
      <path
         class="cls-1"
         d="m 372.51,175.49 a 10.73,10.73 0 0 0 -2,0.67 c -0.63,0.23 -1.26,0.48 -1.89,0.73 -0.2,-4.58 3.52,-9.51 9.29,-8 9.27,2.66 5.31,17.13 -4,14.47 -3.35,-0.86 4.19,-8.54 -1.4,-7.87 z"
         id="path8366"
         style="fill-opacity:1;stroke:#231815;stroke-opacity:1" />
      <path
         class="cls-1"
         d="m 365.41,178.24 c 1,-0.48 2.11,-0.92 3.18,-1.35 a 6.73,6.73 0 0 0 4.65,6.31 53.23,53.23 0 0 1 -9.75,-4 c 0.63,-0.33 1.26,-0.66 1.92,-0.96 z"
         id="path8368"
         style="fill-opacity:1;stroke:#231815;stroke-opacity:1" />
      <path
         class="cls-1"
         d="m 359.07,329.08 a 57.19,57.19 0 0 1 -1.44,14.42 q -4.56,2.81 -9.35,5.24 a 51.49,51.49 0 0 0 3.31,-18.22 c 0,-0.26 0,-0.52 0,-0.79 2.46,-1.58 4.87,-3.26 7.2,-5 0.14,1.42 0.21,2.88 0.28,4.35 z"
         id="path8370"
         style="fill-opacity:1;stroke:#231815;stroke-opacity:1" />
      <path
         class="cls-1"
         d="m 358.78,324.7 c -2.33,1.77 -4.74,3.45 -7.2,5 a 51.61,51.61 0 0 0 -13.07,-33.6 q 5,0.63 10,0.89 a 59.22,59.22 0 0 1 10.27,27.71 z"
         id="path8372"
         style="fill-opacity:1;stroke:#231815;stroke-opacity:1" />
      <path
         class="cls-3"
         d="M 387.67,293.08 A 119.71,119.71 0 0 1 358.78,324.7 59.22,59.22 0 0 0 348.49,297 130.32,130.32 0 0 0 387.67,293.08 Z"
         id="path8374"
         style="fill-opacity:1;stroke:#231815;stroke-opacity:1" />
      <path
         class="cls-1"
         d="m 351.59,330.52 a 51.49,51.49 0 0 1 -3.31,18.22 q -5.29,2.7 -10.83,4.91 a 45.38,45.38 0 0 0 6.43,-19.39 q 3.94,-2.12 7.7,-4.53 c 0,0.27 0.01,0.53 0.01,0.79 z"
         id="path8376"
         style="fill-opacity:1;stroke:#231815;stroke-opacity:1" />
      <path
         class="cls-1"
         d="m 338.51,296.13 a 51.61,51.61 0 0 1 13.07,33.6 q -3.75,2.42 -7.7,4.53 a 44.11,44.11 0 0 0 0.14,-6.61 43.64,43.64 0 0 0 -20.56,-34.33 132.46,132.46 0 0 0 15.05,2.81 z"
         id="path8378"
         style="fill-opacity:1;stroke:#231815;stroke-opacity:1" />
      <path
         class="cls-1"
         d="m 345.68,146.88 c 0,1.42 -1.08,3.48 -1.57,4.74 -0.76,1.94 -1.6,3.85 -2.55,5.71 a 55.79,55.79 0 0 1 -2.62,-5.71 15.57,15.57 0 0 1 -1.17,-3.36 c -0.13,-0.46 -0.26,-0.92 -0.4,-1.38 z"
         id="path8380"
         style="fill-opacity:1;stroke:#231815;stroke-opacity:1" />
      <path
         class="cls-1"
         d="m 338.94,151.62 a 55.79,55.79 0 0 0 2.62,5.71 c -0.62,1.22 -1.28,2.42 -2,3.58 a 53.79,53.79 0 0 1 -14.61,15.19 43.92,43.92 0 0 1 -5.27,3.15 56.12,56.12 0 0 0 -7.76,-3.33 11.34,11.34 0 0 0 -2.73,-0.83 v 4.16 c -1.33,3.38 -1.11,4.7 0.68,3.95 1.38,0 3.41,-1.11 4.71,-1.63 1.74,-0.7 3.44,-1.46 5.1,-2.32 a 53.7,53.7 0 0 1 11.11,7.75 50.46,50.46 0 0 1 10.71,14 c -1.54,2.8 -3.32,6.16 -3.73,9.17 -0.35,2.53 -2.14,1.38 3.76,1.38 4.85,0 4.52,1 3.54,-2.06 a 59.47,59.47 0 0 0 -2.26,-5.77 c -0.4,-0.92 -0.84,-1.83 -1.31,-2.72 l 0.59,-1.07 a 52.57,52.57 0 0 1 21.4,-20.79 53.23,53.23 0 0 0 9.75,4 l 0.65,0.2 c 9.3,2.66 13.26,-11.81 4,-14.47 a 10.72,10.72 0 0 1 7.7,11.75 c -0.71,5.28 -4.46,7.67 -9.08,9.27 -9.45,3.28 -17.06,9.32 -21.79,18.22 -2,3.72 -2.42,8.45 -5.21,11.67 a 10.65,10.65 0 0 1 -12.16,2.71 c -5,-2.12 -5.66,-6.52 -7.43,-11 a 36.24,36.24 0 0 0 -5.87,-9.89 37.73,37.73 0 0 0 -10.21,-8.53 c -3.48,-2 -7.46,-2.6 -10.91,-4.5 a 10.74,10.74 0 0 1 -5.19,-12.22 c 1.24,-4.53 4.7,-6.46 8.83,-7.84 a 37.27,37.27 0 0 0 19.65,-14.61 c 4.45,-6.8 5.18,-19.28 15.76,-18.87 9.9,0.39 10.56,12.28 14.87,18.87 a 37.06,37.06 0 0 0 21,15 c -5.77,-1.55 -9.49,3.38 -9.29,8 -1.07,0.43 -2.14,0.87 -3.18,1.35 -0.66,0.3 -1.29,0.63 -1.92,1 a 52.55,52.55 0 0 1 -21.93,-21.87 c 0.95,-1.86 1.79,-3.77 2.55,-5.71 0.49,-1.26 1.58,-3.32 1.57,-4.74 h -8.31 c 0.14,0.46 0.27,0.92 0.4,1.38 a 15.57,15.57 0 0 0 1.2,3.31 z"
         id="path8382"
         style="fill-opacity:1;stroke:#231815;stroke-opacity:1" />
      <path
         class="cls-1"
         d="m 345.07,209.55 c 1,3.07 1.31,2.06 -3.54,2.06 -5.9,0 -4.11,1.15 -3.76,-1.38 0.41,-3 2.19,-6.37 3.73,-9.17 0.47,0.89 0.91,1.8 1.31,2.72 a 59.47,59.47 0 0 1 2.26,5.77 z"
         id="path8384"
         style="fill-opacity:1;stroke:#231815;stroke-opacity:1" />
      <path
         class="cls-2"
         d="m 341.56,157.33 a 52.55,52.55 0 0 0 21.93,21.87 52.57,52.57 0 0 0 -21.4,20.8 l -0.59,1.07 a 50.46,50.46 0 0 0 -10.71,-14 53.7,53.7 0 0 0 -11.13,-7.79 43.92,43.92 0 0 0 5.27,-3.15 53.79,53.79 0 0 0 14.61,-15.19 c 0.74,-1.19 1.4,-2.39 2.02,-3.61 z"
         id="path8386"
         style="fill:#f4ec90;fill-opacity:1;stroke:#231815;stroke-opacity:1" />
      <path
         class="cls-1"
         d="m 316.72,275.76 a 118.78,118.78 0 0 0 12.69,3.55 60.31,60.31 0 0 1 19.08,17.69 q -5,-0.26 -10,-0.89 a 52,52 0 0 0 -20.93,-14.23 7.13,7.13 0 0 0 -0.16,-4.09 c -0.2,-0.67 -0.4,-1.35 -0.68,-2.03 z"
         id="path8388"
         style="fill-opacity:1;stroke:#231815;stroke-opacity:1" />
      <path
         class="cls-1"
         d="M 329.41,279.31 A 119.09,119.09 0 0 0 396,274.78 l 0.56,1.48 a 123.82,123.82 0 0 1 -8.89,16.82 130.32,130.32 0 0 1 -39.18,3.92 60.31,60.31 0 0 0 -19.08,-17.69 z"
         id="path8390"
         style="fill-opacity:1;stroke:#231815;stroke-opacity:1" />
      <path
         class="cls-1"
         d="m 329.41,279.31 a 118.78,118.78 0 0 1 -12.69,-3.55 c -0.26,-0.75 -0.53,-1.49 -0.82,-2.24 a 59,59 0 0 1 13.51,5.79 z"
         id="path8392"
         style="fill-opacity:1;stroke:#231815;stroke-opacity:1" />
      <path
         class="cls-1"
         d="m 311.9,175.92 a 56.12,56.12 0 0 1 7.76,3.33 c -1.66,0.86 -3.36,1.62 -5.1,2.32 -1.3,0.52 -3.33,1.67 -4.71,1.63 -1.79,0.75 -2,-0.57 -0.68,-3.95 v -4.16 a 11.34,11.34 0 0 1 2.73,0.83 z"
         id="path8394"
         style="fill-opacity:1;stroke:#231815;stroke-opacity:1" />
      <path
         class="cls-1"
         d="m 252.62,221.48 c 0.66,0.1 1.32,0.19 2,0.31 28.13,4.95 51.25,25.4 61.29,51.73 -1.22,-0.35 -2.46,-0.67 -3.72,-0.95 a 7.75,7.75 0 0 0 -3.63,0.05 c -0.43,-0.18 -0.84,-0.38 -1.26,-0.56 a 73.85,73.85 0 0 0 -49.54,-41.94 q -2.76,-4.23 -5.14,-8.64 z"
         id="path8396"
         style="fill-opacity:1;stroke:#231815;stroke-opacity:1" />
      <path
         class="cls-1"
         d="m 308.55,272.62 a 7.75,7.75 0 0 1 3.63,-0.05 c 1.26,0.28 2.5,0.6 3.72,0.95 0.29,0.75 0.56,1.49 0.82,2.24 q -4.14,-1.41 -8.17,-3.14 z"
         id="path8398"
         style="fill-opacity:1;stroke:#231815;stroke-opacity:1" />
      <path
         class="cls-1"
         d="m 307.65,272.92 a 6.78,6.78 0 0 1 0.9,-0.3 q 4,1.72 8.17,3.14 c 0.24,0.68 0.48,1.36 0.7,2.05 a 7.13,7.13 0 0 1 0.16,4.09 51,51 0 0 0 -7.4,-2.09 69.85,69.85 0 0 0 -2.53,-6.89 z"
         id="path8400"
         style="fill-opacity:1;stroke:#231815;stroke-opacity:1" />
      <path
         class="cls-1"
         d="m 307.29,272.06 c 0.42,0.18 0.83,0.38 1.26,0.56 a 6.78,6.78 0 0 0 -0.9,0.3 c -0.12,-0.29 -0.23,-0.58 -0.36,-0.86 z"
         id="path8402"
         style="fill-opacity:1;stroke:#231815;stroke-opacity:1" />
      <path
         class="cls-1"
         d="m 302.89,281.6 a 8.3,8.3 0 0 1 4.76,-8.68 69.85,69.85 0 0 1 2.53,6.89 51,51 0 0 1 7.4,2.09 c -1.68,6.07 -12.18,7.55 -14.63,-0.1 z"
         id="path8404"
         style="fill-opacity:1;stroke:#231815;stroke-opacity:1" />
      <path
         class="cls-1"
         d="m 303,281.8 c 2.45,7.65 12.95,6.17 14.63,0.1 a 52,52 0 0 1 20.93,14.23 132.46,132.46 0 0 1 -15.05,-2.81 46.89,46.89 0 0 0 -15.32,-6.32 6.36,6.36 0 0 1 -5.3,-5.44 z"
         id="path8406"
         style="fill-opacity:1;stroke:#231815;stroke-opacity:1" />
      <path
         class="cls-1"
         d="m 307.29,272.06 c 0.13,0.28 0.24,0.57 0.36,0.86 a 8.3,8.3 0 0 0 -4.76,8.68 66.74,66.74 0 0 0 -7.39,-15.6 115.94,115.94 0 0 0 11.79,6.06 z"
         id="path8408"
         style="fill-opacity:1;stroke:#231815;stroke-opacity:1" />
      <path
         class="cls-1"
         d="m 257.75,230.12 a 73.85,73.85 0 0 1 49.54,41.94 115.94,115.94 0 0 1 -11.79,-6 67.19,67.19 0 0 0 -29.95,-25.32 116.07,116.07 0 0 1 -7.8,-10.62 z"
         id="path8410"
         style="fill-opacity:1;stroke:#231815;stroke-opacity:1" />
      <path
         class="cls-1"
         d="m 237,111.26 c 5.13,-2.21 13.87,1.63 11,8.47 -0.7,1.67 -1.35,3.35 -2,5 l -1.47,-0.55 -11,-8.47 -1.14,-2.38 q 2.24,-1.07 4.61,-2.07 z"
         id="path8412"
         style="fill-opacity:1;stroke:#231815;stroke-opacity:1" />
      <path
         class="cls-1"
         d="m 244.52,124.22 1.47,0.55 a 118.4,118.4 0 0 0 6.63,96.71 82.37,82.37 0 0 0 -17.06,-0.8 132.39,132.39 0 0 1 -7.87,-87.56 122.18,122.18 0 0 1 16.83,-8.9 z"
         id="path8414"
         style="fill-opacity:1;stroke:#231815;stroke-opacity:1" />
      <path
         class="cls-1"
         d="m 239.76,227.91 a 73.57,73.57 0 0 1 18,2.21 116.07,116.07 0 0 0 7.8,10.58 66.9,66.9 0 0 0 -13.56,-4.19 62.92,62.92 0 0 0 -8.6,-1.06 q -2.28,-3.7 -4.31,-7.53 z"
         id="path8416"
         style="fill-opacity:1;stroke:#231815;stroke-opacity:1" />
      <path
         class="cls-1"
         d="m 178.38,260.83 a 73.59,73.59 0 0 1 60.72,-32.91 q 2,3.83 4.31,7.53 a 67.14,67.14 0 0 0 -58.56,29.16 8.3,8.3 0 0 1 -5.64,3.68 c -0.88,-2.61 -1.67,-5.26 -2.36,-7.93 0.51,0.15 1.02,0.3 1.53,0.47 z"
         id="path8418"
         style="fill-opacity:1;stroke:#231815;stroke-opacity:1" />
      <path
         class="cls-1"
         d="m 235.56,220.68 a 82.37,82.37 0 0 1 17.06,0.8 q 2.37,4.41 5.13,8.64 a 73.57,73.57 0 0 0 -18,-2.21 h -0.66 c -1.25,-2.37 -2.42,-4.79 -3.53,-7.23 z"
         id="path8420"
         style="fill-opacity:1;stroke:#231815;stroke-opacity:1" />
      <path
         class="cls-1"
         d="m 235.56,220.68 c 1.11,2.44 2.28,4.86 3.54,7.24 a 73.59,73.59 0 0 0 -60.72,32.91 c -0.51,-0.17 -1,-0.32 -1.53,-0.47 q -0.63,-2.42 -1.16,-4.86 l 4.68,-1.91 c -1.65,-0.5 -3.3,-0.94 -5,-1.33 a 82.48,82.48 0 0 1 60.19,-31.58 z"
         id="path8422"
         style="fill-opacity:1;stroke:#231815;stroke-opacity:1" />
      <path
         class="cls-1"
         d="m 232.36,113.37 1.14,2.38 a 126.92,126.92 0 0 0 -5.81,17.37 116.89,116.89 0 0 0 -50.72,68 114.67,114.67 0 0 0 -1.95,51 70.81,70.81 0 0 0 -15.76,-1.74 131.16,131.16 0 0 1 73.1,-137.07 z"
         id="path8424"
         style="fill-opacity:1;stroke:#231815;stroke-opacity:1" />
      <path
         class="cls-3"
         d="m 235.56,220.68 a 82.48,82.48 0 0 0 -60.16,31.58 l -0.38,-0.08 a 114.67,114.67 0 0 1 1.95,-51 116.89,116.89 0 0 1 50.72,-68 132.39,132.39 0 0 0 7.87,87.5 z"
         id="path8426"
         style="fill-opacity:1;stroke:#231815;stroke-opacity:1" />
      <path
         class="cls-1"
         d="m 176.85,260.36 c 0.69,2.67 1.48,5.32 2.36,7.93 a 6.7,6.7 0 0 1 -2.83,-0.23 58.1,58.1 0 0 0 -14,-2.49 q -1,-3.84 -1.82,-7.74 a 62.23,62.23 0 0 1 16.29,2.53 z"
         id="path8428"
         style="fill-opacity:1;stroke:#231815;stroke-opacity:1" />
      <path
         class="cls-1"
         d="m 175.4,252.26 c 1.67,0.39 3.32,0.83 5,1.33 l -4.68,1.91 c -0.21,-1 -0.4,-1.9 -0.58,-2.85 z"
         id="path8430"
         style="fill-opacity:1;stroke:#231815;stroke-opacity:1" />
      <path
         class="cls-1"
         d="m 175.11,252.65 c 0.18,1 0.37,1.9 0.58,2.85 l -3.79,1.5 q 1.55,-2.23 3.21,-4.35 z"
         id="path8432"
         style="fill-opacity:1;stroke:#231815;stroke-opacity:1" />
      <path
         class="cls-1"
         d="m 175.11,252.65 -0.09,-0.47 0.38,0.08 z"
         id="path8434"
         style="fill-opacity:1;stroke:#231815;stroke-opacity:1" />
      <path
         class="cls-1"
         d="m 175.11,252.65 q -1.67,2.13 -3.21,4.39 l 3.79,-1.54 q 0.52,2.44 1.16,4.86 a 62.23,62.23 0 0 0 -16.31,-2.53 c -0.49,-2.45 -0.92,-4.92 -1.28,-7.39 a 70.81,70.81 0 0 1 15.74,1.74 z"
         id="path8436"
         style="fill-opacity:1;stroke:#231815;stroke-opacity:1" />
      <path
         class="cls-1"
         d="m 97,320 a 62.23,62.23 0 0 1 62.2,-62.2 c 0.45,0 0.89,0 1.34,0 q 0.79,3.9 1.82,7.74 c -18,-0.94 -35.88,6.64 -47.07,21.71 a 54.77,54.77 0 0 0 43.91,87.49 c 5.49,0.05 11,0 16.46,0 h 115.46 c 8.46,0 16.6,0.16 24.72,-2.95 a 43.63,43.63 0 0 0 21.61,-18.17 q 5.54,-2.2 10.83,-4.91 a 51.75,51.75 0 0 1 -48.44,33.53 H 159.2 A 62.23,62.23 0 0 1 97,320 Z"
         id="path8438"
         style="fill-opacity:1;stroke:#231815;stroke-opacity:1" />
      <path
         class="cls-1"
         d="m 97,320 a 62.23,62.23 0 0 0 62.24,62.23 h 140.6 a 51.75,51.75 0 0 0 48.44,-33.53 q 4.79,-2.43 9.35,-5.24 a 60.29,60.29 0 0 1 -39.69,43.45 c -9.48,3.1 -19.19,2.82 -29,2.82 H 165.51 c -12.67,0 -24.76,-1.39 -36.45,-6.86 A 69.76,69.76 0 0 1 90.48,331.68 c -3.67,-22.81 3.88,-46.46 20.82,-62.36 a 70.15,70.15 0 0 1 48,-18.92 c 0.36,2.47 0.79,4.94 1.28,7.39 -0.45,0 -0.89,0 -1.34,0 A 62.23,62.23 0 0 0 97,320 Z"
         id="path8440"
         style="fill-opacity:1;stroke:#231815;stroke-opacity:1" />
    </g>
  </g>
  <script
     id="mesh_polyfill"
     type="text/javascript">
!function(){const t=&quot;http://www.w3.org/2000/svg&quot;,e=&quot;http://www.w3.org/1999/xlink&quot;,s=&quot;http://www.w3.org/1999/xhtml&quot;,r=2;if(document.createElementNS(t,&quot;meshgradient&quot;).x)return;const n=(t,e,s,r)=&gt;{let n=new x(.5*(e.x+s.x),.5*(e.y+s.y)),o=new x(.5*(t.x+e.x),.5*(t.y+e.y)),i=new x(.5*(s.x+r.x),.5*(s.y+r.y)),a=new x(.5*(n.x+o.x),.5*(n.y+o.y)),h=new x(.5*(n.x+i.x),.5*(n.y+i.y)),l=new x(.5*(a.x+h.x),.5*(a.y+h.y));return[[t,o,a,l],[l,h,i,r]]},o=t=&gt;{let e=t[0].distSquared(t[1]),s=t[2].distSquared(t[3]),r=.25*t[0].distSquared(t[2]),n=.25*t[1].distSquared(t[3]),o=e&gt;s?e:s,i=r&gt;n?r:n;return 18*(o&gt;i?o:i)},i=(t,e)=&gt;Math.sqrt(t.distSquared(e)),a=(t,e)=&gt;t.scale(2/3).add(e.scale(1/3)),h=t=&gt;{let e,s,r,n,o,i,a,h=new g;return t.match(/(\w+\(\s*[^)]+\))+/g).forEach(t=&gt;{let l=t.match(/[\w.-]+/g),d=l.shift();switch(d){case&quot;translate&quot;:2===l.length?e=new g(1,0,0,1,l[0],l[1]):(console.error(&quot;mesh.js: translate does not have 2 arguments!&quot;),e=new g(1,0,0,1,0,0)),h=h.append(e);break;case&quot;scale&quot;:1===l.length?s=new g(l[0],0,0,l[0],0,0):2===l.length?s=new g(l[0],0,0,l[1],0,0):(console.error(&quot;mesh.js: scale does not have 1 or 2 arguments!&quot;),s=new g(1,0,0,1,0,0)),h=h.append(s);break;case&quot;rotate&quot;:if(3===l.length&amp;&amp;(e=new g(1,0,0,1,l[1],l[2]),h=h.append(e)),l[0]){r=l[0]*Math.PI/180;let t=Math.cos(r),e=Math.sin(r);Math.abs(t)&lt;1e-16&amp;&amp;(t=0),Math.abs(e)&lt;1e-16&amp;&amp;(e=0),a=new g(t,e,-e,t,0,0),h=h.append(a)}else console.error(&quot;math.js: No argument to rotate transform!&quot;);3===l.length&amp;&amp;(e=new g(1,0,0,1,-l[1],-l[2]),h=h.append(e));break;case&quot;skewX&quot;:l[0]?(r=l[0]*Math.PI/180,n=Math.tan(r),o=new g(1,0,n,1,0,0),h=h.append(o)):console.error(&quot;math.js: No argument to skewX transform!&quot;);break;case&quot;skewY&quot;:l[0]?(r=l[0]*Math.PI/180,n=Math.tan(r),i=new g(1,n,0,1,0,0),h=h.append(i)):console.error(&quot;math.js: No argument to skewY transform!&quot;);break;case&quot;matrix&quot;:6===l.length?h=h.append(new g(...l)):console.error(&quot;math.js: Incorrect number of arguments for matrix!&quot;);break;default:console.error(&quot;mesh.js: Unhandled transform type: &quot;+d)}}),h},l=t=&gt;{let e=[],s=t.split(/[ ,]+/);for(let t=0,r=s.length-1;t&lt;r;t+=2)e.push(new x(parseFloat(s[t]),parseFloat(s[t+1])));return e},d=(t,e)=&gt;{for(let s in e)t.setAttribute(s,e[s])},c=(t,e,s,r,n)=&gt;{let o,i,a=[0,0,0,0];for(let h=0;h&lt;3;++h)e[h]&lt;t[h]&amp;&amp;e[h]&lt;s[h]||t[h]&lt;e[h]&amp;&amp;s[h]&lt;e[h]?a[h]=0:(a[h]=.5*((e[h]-t[h])/r+(s[h]-e[h])/n),o=Math.abs(3*(e[h]-t[h])/r),i=Math.abs(3*(s[h]-e[h])/n),a[h]&gt;o?a[h]=o:a[h]&gt;i&amp;&amp;(a[h]=i));return a},u=[[1,0,0,0,0,0,0,0,0,0,0,0,0,0,0,0],[0,0,0,0,1,0,0,0,0,0,0,0,0,0,0,0],[-3,3,0,0,-2,-1,0,0,0,0,0,0,0,0,0,0],[2,-2,0,0,1,1,0,0,0,0,0,0,0,0,0,0],[0,0,0,0,0,0,0,0,1,0,0,0,0,0,0,0],[0,0,0,0,0,0,0,0,0,0,0,0,1,0,0,0],[0,0,0,0,0,0,0,0,-3,3,0,0,-2,-1,0,0],[0,0,0,0,0,0,0,0,2,-2,0,0,1,1,0,0],[-3,0,3,0,0,0,0,0,-2,0,-1,0,0,0,0,0],[0,0,0,0,-3,0,3,0,0,0,0,0,-2,0,-1,0],[9,-9,-9,9,6,3,-6,-3,6,-6,3,-3,4,2,2,1],[-6,6,6,-6,-3,-3,3,3,-4,4,-2,2,-2,-2,-1,-1],[2,0,-2,0,0,0,0,0,1,0,1,0,0,0,0,0],[0,0,0,0,2,0,-2,0,0,0,0,0,1,0,1,0],[-6,6,6,-6,-4,-2,4,2,-3,3,-3,3,-2,-1,-2,-1],[4,-4,-4,4,2,2,-2,-2,2,-2,2,-2,1,1,1,1]],f=t=&gt;{let e=[];for(let s=0;s&lt;16;++s){e[s]=0;for(let r=0;r&lt;16;++r)e[s]+=u[s][r]*t[r]}return e},p=(t,e,s)=&gt;{const r=e*e,n=s*s,o=e*e*e,i=s*s*s;return t[0]+t[1]*e+t[2]*r+t[3]*o+t[4]*s+t[5]*s*e+t[6]*s*r+t[7]*s*o+t[8]*n+t[9]*n*e+t[10]*n*r+t[11]*n*o+t[12]*i+t[13]*i*e+t[14]*i*r+t[15]*i*o},y=t=&gt;{let e=[],s=[],r=[];for(let s=0;s&lt;4;++s)e[s]=[],e[s][0]=n(t[0][s],t[1][s],t[2][s],t[3][s]),e[s][1]=[],e[s][1].push(...n(...e[s][0][0])),e[s][1].push(...n(...e[s][0][1])),e[s][2]=[],e[s][2].push(...n(...e[s][1][0])),e[s][2].push(...n(...e[s][1][1])),e[s][2].push(...n(...e[s][1][2])),e[s][2].push(...n(...e[s][1][3]));for(let t=0;t&lt;8;++t){s[t]=[];for(let r=0;r&lt;4;++r)s[t][r]=[],s[t][r][0]=n(e[0][2][t][r],e[1][2][t][r],e[2][2][t][r],e[3][2][t][r]),s[t][r][1]=[],s[t][r][1].push(...n(...s[t][r][0][0])),s[t][r][1].push(...n(...s[t][r][0][1])),s[t][r][2]=[],s[t][r][2].push(...n(...s[t][r][1][0])),s[t][r][2].push(...n(...s[t][r][1][1])),s[t][r][2].push(...n(...s[t][r][1][2])),s[t][r][2].push(...n(...s[t][r][1][3]))}for(let t=0;t&lt;8;++t){r[t]=[];for(let e=0;e&lt;8;++e)r[t][e]=[],r[t][e][0]=s[t][0][2][e],r[t][e][1]=s[t][1][2][e],r[t][e][2]=s[t][2][2][e],r[t][e][3]=s[t][3][2][e]}return r};class x{constructor(t,e){this.x=t||0,this.y=e||0}toString(){return`(x=${this.x}, y=${this.y})`}clone(){return new x(this.x,this.y)}add(t){return new x(this.x+t.x,this.y+t.y)}scale(t){return void 0===t.x?new x(this.x*t,this.y*t):new x(this.x*t.x,this.y*t.y)}distSquared(t){let e=this.x-t.x,s=this.y-t.y;return e*e+s*s}transform(t){let e=this.x*t.a+this.y*t.c+t.e,s=this.x*t.b+this.y*t.d+t.f;return new x(e,s)}}class g{constructor(t,e,s,r,n,o){void 0===t?(this.a=1,this.b=0,this.c=0,this.d=1,this.e=0,this.f=0):(this.a=t,this.b=e,this.c=s,this.d=r,this.e=n,this.f=o)}toString(){return`affine: ${this.a} ${this.c} ${this.e} \n       ${this.b} ${this.d} ${this.f}`}append(t){t instanceof g||console.error(&quot;mesh.js: argument to Affine.append is not affine!&quot;);let e=this.a*t.a+this.c*t.b,s=this.b*t.a+this.d*t.b,r=this.a*t.c+this.c*t.d,n=this.b*t.c+this.d*t.d,o=this.a*t.e+this.c*t.f+this.e,i=this.b*t.e+this.d*t.f+this.f;return new g(e,s,r,n,o,i)}}class w{constructor(t,e){this.nodes=t,this.colors=e}paintCurve(t,e){if(o(this.nodes)&gt;r){const s=n(...this.nodes);let r=[[],[]],o=[[],[]];for(let t=0;t&lt;4;++t)r[0][t]=this.colors[0][t],r[1][t]=(this.colors[0][t]+this.colors[1][t])/2,o[0][t]=r[1][t],o[1][t]=this.colors[1][t];let i=new w(s[0],r),a=new w(s[1],o);i.paintCurve(t,e),a.paintCurve(t,e)}else{let s=Math.round(this.nodes[0].x);if(s&gt;=0&amp;&amp;s&lt;e){let r=4*(~~this.nodes[0].y*e+s);t[r]=Math.round(this.colors[0][0]),t[r+1]=Math.round(this.colors[0][1]),t[r+2]=Math.round(this.colors[0][2]),t[r+3]=Math.round(this.colors[0][3])}}}}class m{constructor(t,e){this.nodes=t,this.colors=e}split(){let t=[[],[],[],[]],e=[[],[],[],[]],s=[[[],[]],[[],[]]],r=[[[],[]],[[],[]]];for(let s=0;s&lt;4;++s){const r=n(this.nodes[0][s],this.nodes[1][s],this.nodes[2][s],this.nodes[3][s]);t[0][s]=r[0][0],t[1][s]=r[0][1],t[2][s]=r[0][2],t[3][s]=r[0][3],e[0][s]=r[1][0],e[1][s]=r[1][1],e[2][s]=r[1][2],e[3][s]=r[1][3]}for(let t=0;t&lt;4;++t)s[0][0][t]=this.colors[0][0][t],s[0][1][t]=this.colors[0][1][t],s[1][0][t]=(this.colors[0][0][t]+this.colors[1][0][t])/2,s[1][1][t]=(this.colors[0][1][t]+this.colors[1][1][t])/2,r[0][0][t]=s[1][0][t],r[0][1][t]=s[1][1][t],r[1][0][t]=this.colors[1][0][t],r[1][1][t]=this.colors[1][1][t];return[new m(t,s),new m(e,r)]}paint(t,e){let s,n=!1;for(let t=0;t&lt;4;++t)if((s=o([this.nodes[0][t],this.nodes[1][t],this.nodes[2][t],this.nodes[3][t]]))&gt;r){n=!0;break}if(n){let s=this.split();s[0].paint(t,e),s[1].paint(t,e)}else{new w([...this.nodes[0]],[...this.colors[0]]).paintCurve(t,e)}}}class b{constructor(t){this.readMesh(t),this.type=t.getAttribute(&quot;type&quot;)||&quot;bilinear&quot;}readMesh(t){let e=[[]],s=[[]],r=Number(t.getAttribute(&quot;x&quot;)),n=Number(t.getAttribute(&quot;y&quot;));e[0][0]=new x(r,n);let o=t.children;for(let t=0,r=o.length;t&lt;r;++t){e[3*t+1]=[],e[3*t+2]=[],e[3*t+3]=[],s[t+1]=[];let r=o[t].children;for(let n=0,o=r.length;n&lt;o;++n){let o=r[n].children;for(let r=0,i=o.length;r&lt;i;++r){let i=r;0!==t&amp;&amp;++i;let h,d=o[r].getAttribute(&quot;path&quot;),c=&quot;l&quot;;null!=d&amp;&amp;(c=(h=d.match(/\s*([lLcC])\s*(.*)/))[1]);let u=l(h[2]);switch(c){case&quot;l&quot;:0===i?(e[3*t][3*n+3]=u[0].add(e[3*t][3*n]),e[3*t][3*n+1]=a(e[3*t][3*n],e[3*t][3*n+3]),e[3*t][3*n+2]=a(e[3*t][3*n+3],e[3*t][3*n])):1===i?(e[3*t+3][3*n+3]=u[0].add(e[3*t][3*n+3]),e[3*t+1][3*n+3]=a(e[3*t][3*n+3],e[3*t+3][3*n+3]),e[3*t+2][3*n+3]=a(e[3*t+3][3*n+3],e[3*t][3*n+3])):2===i?(0===n&amp;&amp;(e[3*t+3][3*n+0]=u[0].add(e[3*t+3][3*n+3])),e[3*t+3][3*n+1]=a(e[3*t+3][3*n],e[3*t+3][3*n+3]),e[3*t+3][3*n+2]=a(e[3*t+3][3*n+3],e[3*t+3][3*n])):(e[3*t+1][3*n]=a(e[3*t][3*n],e[3*t+3][3*n]),e[3*t+2][3*n]=a(e[3*t+3][3*n],e[3*t][3*n]));break;case&quot;L&quot;:0===i?(e[3*t][3*n+3]=u[0],e[3*t][3*n+1]=a(e[3*t][3*n],e[3*t][3*n+3]),e[3*t][3*n+2]=a(e[3*t][3*n+3],e[3*t][3*n])):1===i?(e[3*t+3][3*n+3]=u[0],e[3*t+1][3*n+3]=a(e[3*t][3*n+3],e[3*t+3][3*n+3]),e[3*t+2][3*n+3]=a(e[3*t+3][3*n+3],e[3*t][3*n+3])):2===i?(0===n&amp;&amp;(e[3*t+3][3*n+0]=u[0]),e[3*t+3][3*n+1]=a(e[3*t+3][3*n],e[3*t+3][3*n+3]),e[3*t+3][3*n+2]=a(e[3*t+3][3*n+3],e[3*t+3][3*n])):(e[3*t+1][3*n]=a(e[3*t][3*n],e[3*t+3][3*n]),e[3*t+2][3*n]=a(e[3*t+3][3*n],e[3*t][3*n]));break;case&quot;c&quot;:0===i?(e[3*t][3*n+1]=u[0].add(e[3*t][3*n]),e[3*t][3*n+2]=u[1].add(e[3*t][3*n]),e[3*t][3*n+3]=u[2].add(e[3*t][3*n])):1===i?(e[3*t+1][3*n+3]=u[0].add(e[3*t][3*n+3]),e[3*t+2][3*n+3]=u[1].add(e[3*t][3*n+3]),e[3*t+3][3*n+3]=u[2].add(e[3*t][3*n+3])):2===i?(e[3*t+3][3*n+2]=u[0].add(e[3*t+3][3*n+3]),e[3*t+3][3*n+1]=u[1].add(e[3*t+3][3*n+3]),0===n&amp;&amp;(e[3*t+3][3*n+0]=u[2].add(e[3*t+3][3*n+3]))):(e[3*t+2][3*n]=u[0].add(e[3*t+3][3*n]),e[3*t+1][3*n]=u[1].add(e[3*t+3][3*n]));break;case&quot;C&quot;:0===i?(e[3*t][3*n+1]=u[0],e[3*t][3*n+2]=u[1],e[3*t][3*n+3]=u[2]):1===i?(e[3*t+1][3*n+3]=u[0],e[3*t+2][3*n+3]=u[1],e[3*t+3][3*n+3]=u[2]):2===i?(e[3*t+3][3*n+2]=u[0],e[3*t+3][3*n+1]=u[1],0===n&amp;&amp;(e[3*t+3][3*n+0]=u[2])):(e[3*t+2][3*n]=u[0],e[3*t+1][3*n]=u[1]);break;default:console.error(&quot;mesh.js: &quot;+c+&quot; invalid path type.&quot;)}if(0===t&amp;&amp;0===n||r&gt;0){let e=window.getComputedStyle(o[r]).stopColor.match(/^rgb\s*\(\s*(\d+)\s*,\s*(\d+)\s*,\s*(\d+)\s*\)$/i),a=window.getComputedStyle(o[r]).stopOpacity,h=255;a&amp;&amp;(h=Math.floor(255*a)),e&amp;&amp;(0===i?(s[t][n]=[],s[t][n][0]=Math.floor(e[1]),s[t][n][1]=Math.floor(e[2]),s[t][n][2]=Math.floor(e[3]),s[t][n][3]=h):1===i?(s[t][n+1]=[],s[t][n+1][0]=Math.floor(e[1]),s[t][n+1][1]=Math.floor(e[2]),s[t][n+1][2]=Math.floor(e[3]),s[t][n+1][3]=h):2===i?(s[t+1][n+1]=[],s[t+1][n+1][0]=Math.floor(e[1]),s[t+1][n+1][1]=Math.floor(e[2]),s[t+1][n+1][2]=Math.floor(e[3]),s[t+1][n+1][3]=h):3===i&amp;&amp;(s[t+1][n]=[],s[t+1][n][0]=Math.floor(e[1]),s[t+1][n][1]=Math.floor(e[2]),s[t+1][n][2]=Math.floor(e[3]),s[t+1][n][3]=h))}}e[3*t+1][3*n+1]=new x,e[3*t+1][3*n+2]=new x,e[3*t+2][3*n+1]=new x,e[3*t+2][3*n+2]=new x,e[3*t+1][3*n+1].x=(-4*e[3*t][3*n].x+6*(e[3*t][3*n+1].x+e[3*t+1][3*n].x)+-2*(e[3*t][3*n+3].x+e[3*t+3][3*n].x)+3*(e[3*t+3][3*n+1].x+e[3*t+1][3*n+3].x)+-1*e[3*t+3][3*n+3].x)/9,e[3*t+1][3*n+2].x=(-4*e[3*t][3*n+3].x+6*(e[3*t][3*n+2].x+e[3*t+1][3*n+3].x)+-2*(e[3*t][3*n].x+e[3*t+3][3*n+3].x)+3*(e[3*t+3][3*n+2].x+e[3*t+1][3*n].x)+-1*e[3*t+3][3*n].x)/9,e[3*t+2][3*n+1].x=(-4*e[3*t+3][3*n].x+6*(e[3*t+3][3*n+1].x+e[3*t+2][3*n].x)+-2*(e[3*t+3][3*n+3].x+e[3*t][3*n].x)+3*(e[3*t][3*n+1].x+e[3*t+2][3*n+3].x)+-1*e[3*t][3*n+3].x)/9,e[3*t+2][3*n+2].x=(-4*e[3*t+3][3*n+3].x+6*(e[3*t+3][3*n+2].x+e[3*t+2][3*n+3].x)+-2*(e[3*t+3][3*n].x+e[3*t][3*n+3].x)+3*(e[3*t][3*n+2].x+e[3*t+2][3*n].x)+-1*e[3*t][3*n].x)/9,e[3*t+1][3*n+1].y=(-4*e[3*t][3*n].y+6*(e[3*t][3*n+1].y+e[3*t+1][3*n].y)+-2*(e[3*t][3*n+3].y+e[3*t+3][3*n].y)+3*(e[3*t+3][3*n+1].y+e[3*t+1][3*n+3].y)+-1*e[3*t+3][3*n+3].y)/9,e[3*t+1][3*n+2].y=(-4*e[3*t][3*n+3].y+6*(e[3*t][3*n+2].y+e[3*t+1][3*n+3].y)+-2*(e[3*t][3*n].y+e[3*t+3][3*n+3].y)+3*(e[3*t+3][3*n+2].y+e[3*t+1][3*n].y)+-1*e[3*t+3][3*n].y)/9,e[3*t+2][3*n+1].y=(-4*e[3*t+3][3*n].y+6*(e[3*t+3][3*n+1].y+e[3*t+2][3*n].y)+-2*(e[3*t+3][3*n+3].y+e[3*t][3*n].y)+3*(e[3*t][3*n+1].y+e[3*t+2][3*n+3].y)+-1*e[3*t][3*n+3].y)/9,e[3*t+2][3*n+2].y=(-4*e[3*t+3][3*n+3].y+6*(e[3*t+3][3*n+2].y+e[3*t+2][3*n+3].y)+-2*(e[3*t+3][3*n].y+e[3*t][3*n+3].y)+3*(e[3*t][3*n+2].y+e[3*t+2][3*n].y)+-1*e[3*t][3*n].y)/9}}this.nodes=e,this.colors=s}paintMesh(t,e){let s=(this.nodes.length-1)/3,r=(this.nodes[0].length-1)/3;if(&quot;bilinear&quot;===this.type||s&lt;2||r&lt;2){let n;for(let o=0;o&lt;s;++o)for(let s=0;s&lt;r;++s){let r=[];for(let t=3*o,e=3*o+4;t&lt;e;++t)r.push(this.nodes[t].slice(3*s,3*s+4));let i=[];i.push(this.colors[o].slice(s,s+2)),i.push(this.colors[o+1].slice(s,s+2)),(n=new m(r,i)).paint(t,e)}}else{let n,o,a,h,l,d,u;const x=s,g=r;s++,r++;let w=new Array(s);for(let t=0;t&lt;s;++t){w[t]=new Array(r);for(let e=0;e&lt;r;++e)w[t][e]=[],w[t][e][0]=this.nodes[3*t][3*e],w[t][e][1]=this.colors[t][e]}for(let t=0;t&lt;s;++t)for(let e=0;e&lt;r;++e)0!==t&amp;&amp;t!==x&amp;&amp;(n=i(w[t-1][e][0],w[t][e][0]),o=i(w[t+1][e][0],w[t][e][0]),w[t][e][2]=c(w[t-1][e][1],w[t][e][1],w[t+1][e][1],n,o)),0!==e&amp;&amp;e!==g&amp;&amp;(n=i(w[t][e-1][0],w[t][e][0]),o=i(w[t][e+1][0],w[t][e][0]),w[t][e][3]=c(w[t][e-1][1],w[t][e][1],w[t][e+1][1],n,o));for(let t=0;t&lt;r;++t){w[0][t][2]=[],w[x][t][2]=[];for(let e=0;e&lt;4;++e)n=i(w[1][t][0],w[0][t][0]),o=i(w[x][t][0],w[x-1][t][0]),w[0][t][2][e]=n&gt;0?2*(w[1][t][1][e]-w[0][t][1][e])/n-w[1][t][2][e]:0,w[x][t][2][e]=o&gt;0?2*(w[x][t][1][e]-w[x-1][t][1][e])/o-w[x-1][t][2][e]:0}for(let t=0;t&lt;s;++t){w[t][0][3]=[],w[t][g][3]=[];for(let e=0;e&lt;4;++e)n=i(w[t][1][0],w[t][0][0]),o=i(w[t][g][0],w[t][g-1][0]),w[t][0][3][e]=n&gt;0?2*(w[t][1][1][e]-w[t][0][1][e])/n-w[t][1][3][e]:0,w[t][g][3][e]=o&gt;0?2*(w[t][g][1][e]-w[t][g-1][1][e])/o-w[t][g-1][3][e]:0}for(let s=0;s&lt;x;++s)for(let r=0;r&lt;g;++r){let n=i(w[s][r][0],w[s+1][r][0]),o=i(w[s][r+1][0],w[s+1][r+1][0]),c=i(w[s][r][0],w[s][r+1][0]),x=i(w[s+1][r][0],w[s+1][r+1][0]),g=[[],[],[],[]];for(let t=0;t&lt;4;++t){(d=[])[0]=w[s][r][1][t],d[1]=w[s+1][r][1][t],d[2]=w[s][r+1][1][t],d[3]=w[s+1][r+1][1][t],d[4]=w[s][r][2][t]*n,d[5]=w[s+1][r][2][t]*n,d[6]=w[s][r+1][2][t]*o,d[7]=w[s+1][r+1][2][t]*o,d[8]=w[s][r][3][t]*c,d[9]=w[s+1][r][3][t]*x,d[10]=w[s][r+1][3][t]*c,d[11]=w[s+1][r+1][3][t]*x,d[12]=0,d[13]=0,d[14]=0,d[15]=0,u=f(d);for(let e=0;e&lt;9;++e){g[t][e]=[];for(let s=0;s&lt;9;++s)g[t][e][s]=p(u,e/8,s/8),g[t][e][s]&gt;255?g[t][e][s]=255:g[t][e][s]&lt;0&amp;&amp;(g[t][e][s]=0)}}h=[];for(let t=3*s,e=3*s+4;t&lt;e;++t)h.push(this.nodes[t].slice(3*r,3*r+4));l=y(h);for(let s=0;s&lt;8;++s)for(let r=0;r&lt;8;++r)(a=new m(l[s][r],[[[g[0][s][r],g[1][s][r],g[2][s][r],g[3][s][r]],[g[0][s][r+1],g[1][s][r+1],g[2][s][r+1],g[3][s][r+1]]],[[g[0][s+1][r],g[1][s+1][r],g[2][s+1][r],g[3][s+1][r]],[g[0][s+1][r+1],g[1][s+1][r+1],g[2][s+1][r+1],g[3][s+1][r+1]]]])).paint(t,e)}}}transform(t){if(t instanceof x)for(let e=0,s=this.nodes.length;e&lt;s;++e)for(let s=0,r=this.nodes[0].length;s&lt;r;++s)this.nodes[e][s]=this.nodes[e][s].add(t);else if(t instanceof g)for(let e=0,s=this.nodes.length;e&lt;s;++e)for(let s=0,r=this.nodes[0].length;s&lt;r;++s)this.nodes[e][s]=this.nodes[e][s].transform(t)}scale(t){for(let e=0,s=this.nodes.length;e&lt;s;++e)for(let s=0,r=this.nodes[0].length;s&lt;r;++s)this.nodes[e][s]=this.nodes[e][s].scale(t)}}document.querySelectorAll(&quot;rect,circle,ellipse,path,text&quot;).forEach((r,n)=&gt;{let o=r.getAttribute(&quot;id&quot;);o||(o=&quot;patchjs_shape&quot;+n,r.setAttribute(&quot;id&quot;,o));const i=r.style.fill.match(/^url\(\s*&quot;?\s*#([^\s&quot;]+)&quot;?\s*\)/),a=r.style.stroke.match(/^url\(\s*&quot;?\s*#([^\s&quot;]+)&quot;?\s*\)/);if(i&amp;&amp;i[1]){const a=document.getElementById(i[1]);if(a&amp;&amp;&quot;meshgradient&quot;===a.nodeName){const i=r.getBBox();let l=document.createElementNS(s,&quot;canvas&quot;);d(l,{width:i.width,height:i.height});const c=l.getContext(&quot;2d&quot;);let u=c.createImageData(i.width,i.height);const f=new b(a);&quot;objectBoundingBox&quot;===a.getAttribute(&quot;gradientUnits&quot;)&amp;&amp;f.scale(new x(i.width,i.height));const p=a.getAttribute(&quot;gradientTransform&quot;);null!=p&amp;&amp;f.transform(h(p)),&quot;userSpaceOnUse&quot;===a.getAttribute(&quot;gradientUnits&quot;)&amp;&amp;f.transform(new x(-i.x,-i.y)),f.paintMesh(u.data,l.width),c.putImageData(u,0,0);const y=document.createElementNS(t,&quot;image&quot;);d(y,{width:i.width,height:i.height,x:i.x,y:i.y});let g=l.toDataURL();y.setAttributeNS(e,&quot;xlink:href&quot;,g),r.parentNode.insertBefore(y,r),r.style.fill=&quot;none&quot;;const w=document.createElementNS(t,&quot;use&quot;);w.setAttributeNS(e,&quot;xlink:href&quot;,&quot;#&quot;+o);const m=&quot;patchjs_clip&quot;+n,M=document.createElementNS(t,&quot;clipPath&quot;);M.setAttribute(&quot;id&quot;,m),M.appendChild(w),r.parentElement.insertBefore(M,r),y.setAttribute(&quot;clip-path&quot;,&quot;url(#&quot;+m+&quot;)&quot;),u=null,l=null,g=null}}if(a&amp;&amp;a[1]){const o=document.getElementById(a[1]);if(o&amp;&amp;&quot;meshgradient&quot;===o.nodeName){const i=parseFloat(r.style.strokeWidth.slice(0,-2))*(parseFloat(r.style.strokeMiterlimit)||parseFloat(r.getAttribute(&quot;stroke-miterlimit&quot;))||1),a=r.getBBox(),l=Math.trunc(a.width+i),c=Math.trunc(a.height+i),u=Math.trunc(a.x-i/2),f=Math.trunc(a.y-i/2);let p=document.createElementNS(s,&quot;canvas&quot;);d(p,{width:l,height:c});const y=p.getContext(&quot;2d&quot;);let g=y.createImageData(l,c);const w=new b(o);&quot;objectBoundingBox&quot;===o.getAttribute(&quot;gradientUnits&quot;)&amp;&amp;w.scale(new x(l,c));const m=o.getAttribute(&quot;gradientTransform&quot;);null!=m&amp;&amp;w.transform(h(m)),&quot;userSpaceOnUse&quot;===o.getAttribute(&quot;gradientUnits&quot;)&amp;&amp;w.transform(new x(-u,-f)),w.paintMesh(g.data,p.width),y.putImageData(g,0,0);const M=document.createElementNS(t,&quot;image&quot;);d(M,{width:l,height:c,x:0,y:0});let S=p.toDataURL();M.setAttributeNS(e,&quot;xlink:href&quot;,S);const k=&quot;pattern_clip&quot;+n,A=document.createElementNS(t,&quot;pattern&quot;);d(A,{id:k,patternUnits:&quot;userSpaceOnUse&quot;,width:l,height:c,x:u,y:f}),A.appendChild(M),o.parentNode.appendChild(A),r.style.stroke=&quot;url(#&quot;+k+&quot;)&quot;,g=null,p=null,S=null}}})}();
</script>
</svg>
