<?xml version="1.0" encoding="UTF-8" standalone="no"?>
<svg
   xmlns:dc="http://purl.org/dc/elements/1.1/"
   xmlns:cc="http://creativecommons.org/ns#"
   xmlns:rdf="http://www.w3.org/1999/02/22-rdf-syntax-ns#"
   xmlns:svg="http://www.w3.org/2000/svg"
   xmlns="http://www.w3.org/2000/svg"
   xmlns:sodipodi="http://sodipodi.sourceforge.net/DTD/sodipodi-0.dtd"
   xmlns:inkscape="http://www.inkscape.org/namespaces/inkscape"
   viewBox="0 0 500 500"
   version="1.1"
   id="svg1440"
   sodipodi:docname="03n.svg"
   inkscape:version="1.0.2-2 (e86c870879, 2021-01-15)">
  <metadata
     id="metadata1444">
    <rdf:RDF>
      <cc:Work
         rdf:about="">
        <dc:format>image/svg+xml</dc:format>
        <dc:type
           rdf:resource="http://purl.org/dc/dcmitype/StillImage" />
        <dc:title></dc:title>
      </cc:Work>
    </rdf:RDF>
  </metadata>
  <sodipodi:namedview
     pagecolor="#ffffff"
     bordercolor="#666666"
     borderopacity="1"
     objecttolerance="10"
     gridtolerance="10"
     guidetolerance="10"
     inkscape:pageopacity="0"
     inkscape:pageshadow="2"
     inkscape:window-width="1368"
     inkscape:window-height="850"
     id="namedview1442"
     showgrid="false"
     inkscape:zoom="1"
     inkscape:cx="4.7721259"
     inkscape:cy="258.88843"
     inkscape:window-x="-6"
     inkscape:window-y="-6"
     inkscape:window-maximized="1"
     inkscape:current-layer="svg1440" />
  <defs
     id="defs1387">
    <style
       id="style1385">.cls-1{fill:#fff;}.cls-2{fill:#231815;}.cls-3{fill:none;stroke:#231815;stroke-miterlimit:10;}</style>
  </defs>
  <g
     data-name="图层 1"
     id="图层_1"
     style="stroke:#000000;stroke-opacity:1"
     transform="matrix(1.3,0,0,1.3,-75.629221,-80.998215)">
    <path
       class="cls-1"
       d="m 394.67,337.33 c 0.49,14.52 -8.42,28.24 -22.28,33.07 -6.06,2.11 -12.13,1.91 -18.41,1.91 H 263.5 c -4.59,0 -9.19,0.05 -13.79,0 a 41.85,41.85 0 0 1 -34.3,-65.91 c 10.53,-15.33 30,-21 47.46,-15.64 3.35,1 6.62,-0.74 8.47,-3.45 11.27,-16.48 31.82,-25.42 51.57,-21.55 a 51.65,51.65 0 0 1 39.17,34.63 6.36,6.36 0 0 0 5.29,5.41 c 15.01,3.32 26.77,15.79 27.3,31.53 z"
       id="path1391"
       style="stroke:#000000;stroke-opacity:1" />
    <path
       class="cls-2"
       d="m 387.18,297.95 a 49.45,49.45 0 0 1 11.75,10.59 66.46,66.46 0 0 1 -3.9,7.07 41.06,41.06 0 0 0 -10.94,-10.85 52.82,52.82 0 0 0 3.09,-6.81 z"
       id="path1393"
       style="stroke:#000000;stroke-opacity:1" />
    <path
       class="cls-1"
       d="m 348,227.82 c 22.46,4.83 40.56,23.46 42.46,46.81 a 54,54 0 0 1 -3.24,23.32 48.15,48.15 0 0 0 -12.11,-5.63 c -8.35,-21 -26.91,-37.41 -49.56,-41.28 a 66.9,66.9 0 0 0 -63.59,24 57.63,57.63 0 0 0 -50.56,13.47 56.91,56.91 0 0 0 -18.4,43.79 c -6.23,0 -12.45,0.06 -18.67,0 a 64.91,64.91 0 0 1 -1.41,-129.8 68.21,68.21 0 0 1 21.73,3.24 c 3.33,1 6.63,-0.74 8.47,-3.45 17.29,-25.5 48.92,-39.18 79.35,-33.28 a 79.19,79.19 0 0 1 60.23,53.36 6.32,6.32 0 0 0 5.3,5.45 z"
       id="path1395"
       style="stroke:#000000;stroke-opacity:1" />
    <path
       class="cls-2"
       d="m 387.18,297.95 a 52.82,52.82 0 0 1 -3.09,6.81 41.54,41.54 0 0 0 -7.35,-3.95 7,7 0 0 0 -0.14,-4.23 q -0.69,-2.16 -1.53,-4.26 a 48.15,48.15 0 0 1 12.11,5.63 z"
       id="path1397"
       style="stroke:#000000;stroke-opacity:1" />
    <path
       class="cls-2"
       d="m 376.6,296.58 a 7,7 0 0 1 0.14,4.23 39.79,39.79 0 0 0 -7.37,-2.24 57.91,57.91 0 0 0 -2.62,-6.87 7.51,7.51 0 0 1 4.61,-0.36 c 1.26,0.28 2.49,0.6 3.71,1 q 0.84,2.08 1.53,4.24 z"
       id="path1399"
       style="stroke:#000000;stroke-opacity:1" />
    <path
       class="cls-2"
       d="m 369.37,298.57 a 39.79,39.79 0 0 1 7.37,2.24 c -1.79,5.95 -12.15,7.34 -14.6,-0.24 l -0.06,-0.18 a 8.31,8.31 0 0 1 4.67,-8.69 57.91,57.91 0 0 1 2.62,6.87 z"
       id="path1401"
       style="stroke:#000000;stroke-opacity:1" />
    <path
       class="cls-2"
       d="m 362.14,300.57 c 2.45,7.58 12.81,6.19 14.6,0.24 a 41.54,41.54 0 0 1 7.35,3.95 41.06,41.06 0 0 1 10.91,10.85 66.46,66.46 0 0 0 3.9,-7.07 48.66,48.66 0 0 1 10.74,28.79 c 0.69,20.88 -12.64,39.87 -32.06,47.09 -8,3 -16.31,2.89 -24.7,2.89 h -98.43 c -10.75,0 -21,-1.36 -30.78,-6.29 A 57,57 0 0 1 195.39,347.3 h 7.88 a 49,49 0 0 1 -2.9,-15 c 0,-0.61 0,-1.22 0,-1.83 a 49.34,49.34 0 0 1 49.34,-49.34 50.14,50.14 0 0 1 15.21,2.4 58.44,58.44 0 0 1 101.88,8.17 8.31,8.31 0 0 0 -4.67,8.69 51.65,51.65 0 0 0 -39.17,-34.63 c -19.75,-3.87 -40.3,5.07 -51.57,21.55 -1.85,2.71 -5.12,4.47 -8.47,3.45 -17.43,-5.32 -36.93,0.31 -47.46,15.64 a 41.85,41.85 0 0 0 34.3,65.91 c 4.6,0.05 9.2,0 13.79,0 H 354 c 6.28,0 12.35,0.2 18.41,-1.91 13.86,-4.83 22.77,-18.55 22.28,-33.07 -0.53,-15.74 -12.29,-28.21 -27.3,-31.53 a 6.36,6.36 0 0 1 -5.29,-5.41 z"
       id="path1403"
       style="stroke:#000000;stroke-opacity:1" />
    <path
       class="cls-2"
       d="m 357.18,218.6 c 2.94,9.23 -11.54,13.15 -14.46,4 0,-0.07 -0.05,-0.14 -0.07,-0.21 -0.66,-4.68 3.17,-10.33 9.3,-9 1.25,0.27 2.5,0.58 3.74,0.92 0.53,1.4 1.03,2.83 1.49,4.29 z"
       id="path1405"
       style="stroke:#000000;stroke-opacity:1" />
    <path
       class="cls-2"
       d="m 348,227.82 a 6.32,6.32 0 0 1 -5.31,-5.45 c 0,0.07 0.05,0.14 0.07,0.21 2.92,9.17 17.4,5.25 14.46,-4 -0.46,-1.46 -1,-2.89 -1.49,-4.32 a 69.37,69.37 0 0 1 14.56,5.81 c 23.64,12.76 38,39.69 35,66.43 a 68.2,68.2 0 0 1 -6.31,22 49.45,49.45 0 0 0 -11.75,-10.59 54,54 0 0 0 3.24,-23.32 C 388.52,251.28 370.42,232.65 348,227.82 Z"
       id="path1407"
       style="stroke:#000000;stroke-opacity:1" />
    <path
       class="cls-2"
       d="m 266.86,276.29 c -1.64,-0.5 -3.29,-0.92 -4.94,-1.28 a 66.9,66.9 0 0 1 63.59,-24 c 22.65,3.87 41.21,20.28 49.56,41.28 -1.22,-0.38 -2.45,-0.7 -3.71,-1 a 7.51,7.51 0 0 0 -4.61,0.36 58.44,58.44 0 0 0 -101.88,-8.17 47.38,47.38 0 0 0 -6.86,-1.68 l 0.38,-2.11 z"
       id="path1409"
       style="stroke:#000000;stroke-opacity:1" />
    <path
       class="cls-2"
       d="m 266.86,276.29 -8.47,3.45 q 1.68,-2.46 3.53,-4.73 c 1.65,0.36 3.3,0.78 4.94,1.28 z"
       id="path1411"
       style="stroke:#000000;stroke-opacity:1" />
    <path
       class="cls-2"
       d="m 203.27,347.3 h -7.88 a 52.52,52.52 0 0 1 -1.82,-7.92 58.16,58.16 0 0 1 -0.62,-7.08 h 7.42 a 49,49 0 0 0 2.9,15 z"
       id="path1413"
       style="stroke:#000000;stroke-opacity:1" />
    <path
       class="cls-2"
       d="m 198.59,191.28 -8.47,3.44 q 1.67,-2.46 3.47,-4.82 c 1.68,0.4 3.34,0.86 5,1.38 z"
       id="path1415"
       style="stroke:#000000;stroke-opacity:1" />
    <path
       class="cls-2"
       d="M 342.65,222.37 A 79.19,79.19 0 0 0 282.42,169 c -30.43,-5.9 -62.06,7.78 -79.35,33.28 -1.84,2.71 -5.14,4.49 -8.47,3.45 a 68.21,68.21 0 0 0 -21.73,-3.24 64.91,64.91 0 0 0 1.41,129.8 c 6.22,0.06 12.44,0 18.67,0 a 58.16,58.16 0 0 0 0.62,7.08 52.52,52.52 0 0 0 1.82,7.92 h -13.3 c -14.32,0 -28,-1.36 -41.3,-7.38 -23.68,-10.72 -41.31,-33.75 -45.31,-59.46 -4.11,-26.39 4.81,-53.69 24.66,-71.83 a 80.83,80.83 0 0 1 73.45,-18.73 q -1.8,2.36 -3.47,4.82 l 8.47,-3.44 c -1.66,-0.52 -3.32,-1 -5,-1.38 a 93,93 0 0 1 113.13,-28.76 c 22.84,10.2 40.34,29.88 49,53.14 -1.24,-0.34 -2.49,-0.65 -3.74,-0.92 -6.16,-1.35 -9.98,4.34 -9.33,9.02 z"
       id="path1417"
       style="stroke:#000000;stroke-opacity:1" />
    <path
       class="cls-2"
       d="M 193,332.3 A 56.91,56.91 0 0 1 211.41,288.48 57.63,57.63 0 0 1 261.92,275 q -1.84,2.26 -3.53,4.73 l -0.38,2.11 a 47.85,47.85 0 0 0 -8.35,-0.72 49.34,49.34 0 0 0 -49.34,49.34 c 0,0.61 0,1.22 0,1.83 H 193 Z"
       id="path1419"
       style="stroke:#000000;stroke-opacity:1" />
    <path
       class="cls-3"
       d="m 193.59,189.9 a 80.83,80.83 0 0 0 -73.45,18.73 c -19.85,18.14 -28.77,45.44 -24.66,71.83 4,25.71 21.63,48.74 45.31,59.46 13.28,6 27,7.38 41.3,7.38 h 13.3"
       id="path1421"
       style="stroke:#000000;stroke-opacity:1" />
    <path
       class="cls-3"
       d="m 193.59,189.9 c 1.68,0.4 3.34,0.86 5,1.38 l -8.47,3.44 q 1.67,-2.46 3.47,-4.82 z"
       id="path1423"
       style="stroke:#000000;stroke-opacity:1" />
    <path
       class="cls-3"
       d="m 355.69,214.28 c -8.63,-23.26 -26.13,-42.94 -49,-53.14 a 93,93 0 0 0 -113.1,28.76"
       id="path1425"
       style="stroke:#000000;stroke-opacity:1" />
    <path
       class="cls-3"
       d="m 193,332.3 c -6.23,0 -12.45,0.06 -18.67,0 a 64.91,64.91 0 0 1 -1.41,-129.8 68.21,68.21 0 0 1 21.73,3.24 c 3.33,1 6.63,-0.74 8.47,-3.45 17.29,-25.5 48.92,-39.18 79.35,-33.28 a 79.19,79.19 0 0 1 60.23,53.36"
       id="path1427"
       style="stroke:#000000;stroke-opacity:1" />
    <path
       class="cls-3"
       d="m 342.65,222.37 a 6.32,6.32 0 0 0 5.31,5.45 c 22.46,4.83 40.56,23.46 42.46,46.81 a 54,54 0 0 1 -3.24,23.32"
       id="path1429"
       style="stroke:#000000;stroke-opacity:1" />
    <path
       class="cls-3"
       d="m 398.93,308.54 a 68.2,68.2 0 0 0 6.31,-22 c 3,-26.74 -11.35,-53.67 -35,-66.43 a 69.37,69.37 0 0 0 -14.56,-5.81"
       id="path1431"
       style="stroke:#000000;stroke-opacity:1" />
    <path
       class="cls-3"
       d="m 342.65,222.37 c 0,0.07 0.05,0.14 0.07,0.21 2.92,9.17 17.4,5.25 14.46,-4 -0.46,-1.46 -1,-2.89 -1.49,-4.32 -1.24,-0.34 -2.49,-0.65 -3.74,-0.92 -6.13,-1.34 -9.95,4.35 -9.3,9.03 z"
       id="path1433"
       style="stroke:#000000;stroke-opacity:1" />
    <path
       class="cls-3"
       d="m 362.08,300.39 0.06,0.18 c 2.45,7.58 12.81,6.19 14.6,0.24 a 7,7 0 0 0 -0.14,-4.23 q -0.69,-2.16 -1.53,-4.26 c -8.35,-21 -26.91,-37.41 -49.56,-41.28 a 66.9,66.9 0 0 0 -63.59,24 q -1.84,2.26 -3.53,4.73 l 8.47,-3.45 c -1.64,-0.5 -3.29,-0.92 -4.94,-1.28 a 57.63,57.63 0 0 0 -50.56,13.47 56.91,56.91 0 0 0 -18.36,43.79 58.16,58.16 0 0 0 0.62,7.08 52.52,52.52 0 0 0 1.82,7.92 57,57 0 0 0 28.23,33.7 c 9.77,4.93 20,6.29 30.78,6.29 h 98.46 c 8.39,0 16.67,0.1 24.7,-2.89 19.42,-7.22 32.75,-26.21 32.06,-47.09 a 48.66,48.66 0 0 0 -10.74,-28.79 49.45,49.45 0 0 0 -11.75,-10.59 48.15,48.15 0 0 0 -12.11,-5.63 c -1.22,-0.38 -2.45,-0.7 -3.71,-1 a 7.51,7.51 0 0 0 -4.61,0.36 8.31,8.31 0 0 0 -4.67,8.69"
       id="path1435"
       style="stroke:#000000;stroke-opacity:1" />
    <path
       class="cls-3"
       d="m 362.08,300.39 a 6.36,6.36 0 0 0 5.29,5.41 c 15,3.32 26.77,15.79 27.3,31.53 0.49,14.52 -8.42,28.24 -22.28,33.07 -6.06,2.11 -12.13,1.91 -18.41,1.91 H 263.5 c -4.59,0 -9.19,0.05 -13.79,0 a 41.85,41.85 0 0 1 -34.3,-65.91 c 10.53,-15.33 30,-21 47.46,-15.64 3.35,1 6.62,-0.74 8.47,-3.45 11.27,-16.48 31.82,-25.42 51.57,-21.55 a 51.65,51.65 0 0 1 39.17,34.63 z"
       id="path1437"
       style="stroke:#000000;stroke-opacity:1" />
  </g>
  <rect
     style="fill:#000000;fill-opacity:0"
     id="rect3745"
     width="343.75"
     height="299.21875"
     x="64.84375"
     y="126.5625" />
  <rect
     style="fill:#000000;fill-opacity:0"
     id="rect3747"
     width="408.59375"
     height="300.78125"
     x="49.21875"
     y="120.3125" />
  <rect
     style="fill:#000000;fill-opacity:1;stroke:#000000;stroke-width:1.3;stroke-opacity:1"
     id="rect3749"
     width="19.136"
     height="8.0469999"
     x="404.55176"
     y="307.14279" />
  <path
     style="fill:#000000;fill-opacity:1;stroke:#000000;stroke-width:1.3;stroke-opacity:1"
     id="path3751"
     d="m 253.95773,292.09913 c 8.6285,1.43587 8.80505,-1.68816 19.21296,-7.77445 0.21322,-0.20519 0.46603,-0.37596 0.63966,-0.61559 0.40573,-0.55992 0.58421,-1.26052 0.97479,-1.83112 0.7043,-1.02883 1.54023,-2.02958 2.30341,-3.01814 1.37995,-1.60467 2.68919,-3.26131 3.99091,-4.92959 0,0 -13.59852,5.83079 -13.59852,5.83079 v 0 c -1.3034,1.6767 -2.68556,3.28685 -4.00779,4.94846 -1.34265,1.7601 -2.45033,3.79244 -4.21751,5.15115 4.03831,-2.28114 8.07069,-4.57278 12.11491,-6.84339 0.2847,-0.15983 -0.53455,0.38478 -0.83576,0.51076 -1.36981,0.57289 -2.83678,0.26493 -4.22359,-0.0368 0,0 -12.35347,8.60798 -12.35347,8.60798 z" />
</svg>
