<?xml version="1.0" encoding="UTF-8" standalone="no"?>
<svg
   xmlns:dc="http://purl.org/dc/elements/1.1/"
   xmlns:cc="http://creativecommons.org/ns#"
   xmlns:rdf="http://www.w3.org/1999/02/22-rdf-syntax-ns#"
   xmlns:svg="http://www.w3.org/2000/svg"
   xmlns="http://www.w3.org/2000/svg"
   xmlns:sodipodi="http://sodipodi.sourceforge.net/DTD/sodipodi-0.dtd"
   xmlns:inkscape="http://www.inkscape.org/namespaces/inkscape"
   viewBox="0 0 500 500"
   version="1.1"
   id="svg112"
   sodipodi:docname="10d.svg"
   inkscape:version="1.0.2-2 (e86c870879, 2021-01-15)">
  <metadata
     id="metadata116">
    <rdf:RDF>
      <cc:Work
         rdf:about="">
        <dc:format>image/svg+xml</dc:format>
        <dc:type
           rdf:resource="http://purl.org/dc/dcmitype/StillImage" />
        <dc:title></dc:title>
      </cc:Work>
    </rdf:RDF>
  </metadata>
  <sodipodi:namedview
     pagecolor="#ffffff"
     bordercolor="#666666"
     borderopacity="1"
     objecttolerance="10"
     gridtolerance="10"
     guidetolerance="10"
     inkscape:pageopacity="0"
     inkscape:pageshadow="2"
     inkscape:window-width="1368"
     inkscape:window-height="850"
     id="namedview114"
     showgrid="false"
     inkscape:zoom="1.236"
     inkscape:cx="247.97735"
     inkscape:cy="255.48175"
     inkscape:window-x="-6"
     inkscape:window-y="-6"
     inkscape:window-maximized="1"
     inkscape:current-layer="svg112"
     inkscape:document-rotation="0" />
  <defs
     id="defs79">
    <style
       id="style77">.cls-1{fill:#fff;}.cls-2{fill:#231815;}.cls-3{fill:#2ea7e0;}</style>
  </defs>
  <g
     data-name="图层 1"
     id="图层_1"
     transform="matrix(1.5,0,0,1.5,-122.69112,-153.94522)">
    <path
       class="cls-1"
       d="M 325.57,311.22 A 51.75,51.75 0 0 0 335.91,208.76 73.71,73.71 0 0 0 204.1,189.76 62.24,62.24 0 1 0 184.92,311.2"
       id="path83"
       style="fill:#b3b3b3" />
    <path
       class="cls-2"
       d="m 325.57,318.72 a 59.9,59.9 0 0 0 58.79,-52.34 c 3.7,-30 -17,-58.47 -46.46,-64.86 l 5.24,5.24 c -9.07,-28.39 -33.17,-50.81 -62.81,-56 A 82.4,82.4 0 0 0 197.62,186 l 8.47,-3.45 c -31.4,-9.69 -66.35,3.77 -82.26,32.77 -15.16,27.65 -9.62,63.37 13.66,84.79 a 70.91,70.91 0 0 0 47.42,18.61 c 9.66,0.11 9.66,-14.89 0,-15 -24.5,-0.27 -46.36,-16.6 -52.84,-40.4 a 55.22,55.22 0 0 1 25.59,-61.82 c 13.58,-7.83 29.54,-9.09 44.43,-4.49 3.34,1 6.63,-0.74 8.47,-3.45 14.64,-21.54 41.42,-33.14 67.15,-28.1 a 67.05,67.05 0 0 1 50.95,45.29 7.54,7.54 0 0 0 5.24,5.24 c 22.53,4.89 38.5,25.75 35.61,49 -2.74,22.09 -22,38.41 -44,38.7 -9.64,0.13 -9.67,15.13 0,15 z"
       id="path85" />
    <line
       class="cls-3"
       x1="212.97"
       x2="205.60001"
       y1="300.26001"
       y2="281.06"
       id="line87" />
    <path
       class="cls-3"
       d="m 220.2,298.27 -7.37,-19.2 c -1.45,-3.78 -5,-6.39 -9.23,-5.24 -3.61,1 -6.7,5.42 -5.24,9.23 l 7.37,19.2 c 1.45,3.78 5,6.39 9.23,5.24 3.61,-1 6.7,-5.42 5.24,-9.23 z"
       id="path89" />
    <line
       class="cls-3"
       x1="229.44"
       x2="222.06"
       y1="343.14001"
       y2="323.94"
       id="line91" />
    <path
       class="cls-3"
       d="m 236.67,341.15 -7.37,-19.2 c -1.45,-3.78 -5,-6.39 -9.23,-5.24 -3.61,1 -6.7,5.42 -5.24,9.23 l 7.37,19.2 c 1.45,3.78 5,6.39 9.23,5.24 3.61,-1 6.7,-5.42 5.24,-9.23 z"
       id="path93" />
    <line
       class="cls-3"
       x1="250.92999"
       x2="243.56"
       y1="300.26001"
       y2="281.06"
       id="line95" />
    <path
       class="cls-3"
       d="m 258.16,298.27 -7.37,-19.2 c -1.45,-3.78 -5,-6.39 -9.23,-5.24 -3.61,1 -6.7,5.42 -5.24,9.23 l 7.37,19.2 c 1.45,3.78 5,6.39 9.23,5.24 3.61,-1 6.7,-5.42 5.24,-9.23 z"
       id="path97" />
    <line
       class="cls-3"
       x1="267.39999"
       x2="260.01999"
       y1="343.14001"
       y2="323.94"
       id="line99" />
    <path
       class="cls-3"
       d="m 274.63,341.15 -7.37,-19.2 c -1.45,-3.78 -5,-6.39 -9.23,-5.24 -3.61,1 -6.7,5.42 -5.24,9.23 l 7.37,19.2 c 1.45,3.78 5,6.39 9.23,5.24 3.61,-1 6.7,-5.42 5.24,-9.23 z"
       id="path101" />
    <line
       class="cls-3"
       x1="288.89001"
       x2="281.51999"
       y1="300.26001"
       y2="281.06"
       id="line103" />
    <path
       class="cls-3"
       d="m 296.12,298.27 -7.37,-19.2 c -1.45,-3.78 -5,-6.39 -9.23,-5.24 -3.61,1 -6.7,5.42 -5.24,9.23 l 7.37,19.2 c 1.45,3.78 5,6.39 9.23,5.24 3.61,-1 6.7,-5.42 5.24,-9.23 z"
       id="path105" />
    <line
       class="cls-3"
       x1="305.35999"
       x2="297.98999"
       y1="343.14001"
       y2="323.94"
       id="line107" />
    <path
       class="cls-3"
       d="m 312.59,341.15 -7.37,-19.2 c -1.45,-3.78 -5,-6.39 -9.23,-5.24 -3.61,1 -6.7,5.42 -5.24,9.23 l 7.37,19.2 c 1.45,3.78 5,6.39 9.23,5.24 3.61,-1 6.7,-5.42 5.24,-9.23 z"
       id="path109" />
  </g>
  <path
     class="cls-3"
     d="m 257.44,421.75378 -11.055,-28.8 c -2.175,-5.67 -7.5,-9.585 -13.845,-7.86 -5.415,1.5 -10.05,8.13 -7.86,13.845 l 11.055,28.8 c 2.175,5.67 7.5,9.585 13.845,7.86 5.415,-1.5 10.05,-8.13 7.86,-13.845 z"
     id="path93-5"
     style="fill:#2ea7e0;stroke-width:1.5" />
  <path
     class="cls-3"
     d="m 314.38,421.75378 -11.055,-28.8 c -2.175,-5.67 -7.5,-9.585 -13.845,-7.86 -5.415,1.5 -10.05,8.13 -7.86,13.845 l 11.055,28.8 c 2.175,5.67 7.5,9.585 13.845,7.86 5.415,-1.5 10.05,-8.13 7.86,-13.845 z"
     id="path101-1"
     style="fill:#2ea7e0;stroke-width:1.5" />
  <path
     class="cls-3"
     d="m 371.32,421.75378 -11.055,-28.8 c -2.175,-5.67 -7.5,-9.585 -13.845,-7.86 -5.415,1.5 -10.05,8.13 -7.86,13.845 l 11.055,28.8 c 2.175,5.67 7.5,9.585 13.845,7.86 5.415,-1.5 10.05,-8.13 7.86,-13.845 z"
     id="path109-7"
     style="fill:#2ea7e0;stroke-width:1.5" />
</svg>
