<?xml version="1.0" encoding="UTF-8" standalone="no"?>
<svg
   xmlns:dc="http://purl.org/dc/elements/1.1/"
   xmlns:cc="http://creativecommons.org/ns#"
   xmlns:rdf="http://www.w3.org/1999/02/22-rdf-syntax-ns#"
   xmlns:svg="http://www.w3.org/2000/svg"
   xmlns="http://www.w3.org/2000/svg"
   xmlns:sodipodi="http://sodipodi.sourceforge.net/DTD/sodipodi-0.dtd"
   xmlns:inkscape="http://www.inkscape.org/namespaces/inkscape"
   viewBox="0 0 500 500"
   version="1.1"
   id="svg1428"
   sodipodi:docname="50d.svg"
   inkscape:version="1.0.2-2 (e86c870879, 2021-01-15)">
  <metadata
     id="metadata1432">
    <rdf:RDF>
      <cc:Work
         rdf:about="">
        <dc:format>image/svg+xml</dc:format>
        <dc:type
           rdf:resource="http://purl.org/dc/dcmitype/StillImage" />
        <dc:title></dc:title>
      </cc:Work>
    </rdf:RDF>
  </metadata>
  <sodipodi:namedview
     pagecolor="#ffffff"
     bordercolor="#666666"
     borderopacity="1"
     objecttolerance="10"
     gridtolerance="10"
     guidetolerance="10"
     inkscape:pageopacity="0"
     inkscape:pageshadow="2"
     inkscape:window-width="1368"
     inkscape:window-height="850"
     id="namedview1430"
     showgrid="false"
     inkscape:zoom="1.28"
     inkscape:cx="189.16253"
     inkscape:cy="250"
     inkscape:window-x="-6"
     inkscape:window-y="-6"
     inkscape:window-maximized="1"
     inkscape:current-layer="svg1428"
     inkscape:document-rotation="0"
     showguides="false" />
  <defs
     id="defs1413">
    <style
       id="style1411">.cls-1{fill:#dcdddd;}.cls-2{fill:#231815;}</style>
  </defs>
  <g
     data-name="图层 1"
     id="图层_1"
     transform="matrix(1.5,0,0,1.5,-125.03487,-125.0408)"
     style="stroke:#000000;stroke-opacity:1">
    <path
       class="cls-1"
       d="M 325.57,313 A 51.75,51.75 0 0 0 335.91,210.54 73.71,73.71 0 0 0 204.1,191.54 62.24,62.24 0 1 0 184.92,313"
       id="path1417"
       style="stroke:#000000;stroke-opacity:1" />
    <path
       class="cls-2"
       d="m 325.57,320.54 a 59.9,59.9 0 0 0 58.79,-52.34 c 3.7,-30 -17,-58.47 -46.46,-64.86 l 5.24,5.24 c -9.07,-28.39 -33.17,-50.81 -62.81,-56 a 82.4,82.4 0 0 0 -82.71,35.25 l 8.47,-3.45 c -31.4,-9.69 -66.35,3.77 -82.26,32.77 -15.16,27.65 -9.62,63.37 13.66,84.79 a 70.91,70.91 0 0 0 47.42,18.61 c 9.66,0.11 9.66,-14.89 0,-15 -24.5,-0.27 -46.36,-16.6 -52.84,-40.4 a 55.22,55.22 0 0 1 25.59,-61.82 c 13.58,-7.83 29.54,-9.09 44.43,-4.49 3.34,1 6.63,-0.74 8.47,-3.45 14.64,-21.54 41.42,-33.14 67.15,-28.1 a 67.05,67.05 0 0 1 50.95,45.29 7.54,7.54 0 0 0 5.24,5.24 c 22.53,4.89 38.5,25.75 35.61,49 -2.74,22.09 -22,38.41 -44,38.7 -9.64,0.13 -9.67,15.13 0,15 z"
       id="path1419"
       style="stroke:#000000;stroke-opacity:1" />
    <path
       class="cls-2"
       d="m 211.08,320.54 h 89.27 c 9.65,0 9.67,-15 0,-15 h -89.27 c -9.65,0 -9.67,15 0,15 z"
       id="path1421"
       style="stroke:#000000;stroke-opacity:1" />
    <path
       class="cls-2"
       d="M 307.21,277.24 H 195.82 c -9.65,0 -9.67,15 0,15 h 111.39 c 9.65,0 9.67,-15 0,-15 z"
       id="path1423"
       style="stroke:#000000;stroke-opacity:1" />
    <path
       class="cls-2"
       d="M 329,333.83 H 228.82 c -9.65,0 -9.67,15 0,15 H 329 c 9.65,0 9.67,-15 0,-15 z"
       id="path1425"
       style="stroke:#000000;stroke-opacity:1" />
  </g>
  <path
     style="fill:#dcdddd;fill-opacity:1;stroke-width:1.17188;stroke:#000000;stroke-opacity:1"
     d="m 162.81594,340.18236 c -1.93188,-5.34252 -5.65517,-7.10796 -16.91061,-8.01831 -41.81538,-3.3821 -74.651149,-38.94561 -74.651149,-80.85258 0,-13.00518 2.35626,-23.093 8.25375,-35.33664 10.051305,-20.86728 26.450899,-35.17968 48.582199,-42.39911 12.13741,-3.95932 31.59703,-4.44621 45.11718,-1.12885 11.25792,2.76229 13.18849,2.01733 21.40297,-8.25864 11.96151,-14.96337 25.77728,-25.39529 42.50228,-32.09229 14.12953,-5.65775 23.6436,-7.23402 39.80569,-6.59493 16.99565,0.67204 24.5006,2.59734 39.84375,10.2214 22.56375,11.21199 39.90017,30.29442 48.758,53.66861 1.54248,4.07031 3.70774,8.3778 4.8117,9.57219 1.10395,1.19439 5.77227,3.35989 10.37404,4.81224 23.22809,7.3309 42.20094,27.5559 46.84875,49.94058 2.11902,10.20556 0.87177,26.21175 -2.79009,35.80609 -8.90757,23.33849 -31.26684,40.32029 -56.05426,42.57303 -11.87559,1.07927 -14.20371,2.49851 -16.64885,10.14921 -0.52737,1.65011 -2.01859,2.05077 -7.63257,2.05077 -6.94135,0 -6.98412,-0.0211 -8.33751,-4.12194 -2.61216,-7.91491 -0.1416,-7.68621 -79.19004,-7.33044 l -71.0071,0.31958 -2.82776,3.288 c -1.55526,1.8084 -2.82775,4.31328 -2.82775,5.56641 0,2.03322 -0.85742,2.27839 -7.9677,2.27839 h -7.96772 z m 178.33951,-27.71925 c 4.12508,-2.19704 5.41245,-4.72397 5.4521,-10.70171 0.0294,-4.43448 -0.56937,-6.22632 -2.83916,-8.49609 l -2.87641,-2.87643 h -88.26909 c -98.18082,0 -92.17865,-0.50743 -94.73021,8.00891 -1.63368,5.45274 0.86532,12.53809 5.00867,14.20095 4.20436,1.68735 175.07545,1.55733 178.2541,-0.1356 z"
     id="path1438" />
  <path
     style="fill:#b3b3b3;stroke:#000000;stroke-width:1.17188;stroke-opacity:1"
     d="m 162.81594,340.18236 c -1.92506,-5.32367 -5.65533,-7.10813 -16.72974,-8.00303 -41.92478,-3.38784 -74.832019,-38.94934 -74.832019,-80.86786 0,-13.00518 2.35626,-23.093 8.25375,-35.33664 10.051305,-20.86728 26.450899,-35.17968 48.582199,-42.39911 12.21175,-3.98358 31.76773,-4.47241 44.84839,-1.12108 10.99059,2.81586 13.63505,1.78609 21.8715,-8.51675 15.46956,-19.35064 36.11682,-32.22853 59.6742,-37.21936 10.38543,-2.20025 33.29736,-1.53632 43.52778,1.26132 9.52845,2.60569 25.61993,10.39908 33.05774,16.01044 14.73046,11.11326 26.92597,26.79747 33.69507,43.33404 2.11089,5.15679 4.76586,10.40129 5.89993,11.65443 1.13409,1.25316 5.7398,3.4392 10.23491,4.85789 21.41122,6.75748 37.84567,22.8348 44.95758,43.98057 2.7681,8.23038 3.0286,10.43796 2.53441,21.47791 -0.62992,14.07222 -3.21502,22.72673 -9.71076,32.51 -11.65486,17.55351 -30.33759,28.6261 -51.35977,30.43912 -8.81436,0.76019 -14.34459,4.02243 -15.03362,8.86823 -0.32913,2.31463 -1.15312,2.63431 -7.58505,2.9428 l -7.21581,0.34607 -1.40859,-4.26807 c -2.5732,-7.79688 -0.95292,-7.64885 -79.79599,-7.29069 l -70.388,0.31974 -2.82774,3.288 c -1.55526,1.8084 -2.82775,4.31328 -2.82775,5.56641 0,2.03322 -0.85742,2.27839 -7.9677,2.27839 h -7.96772 z m 180.80518,-29.78289 c 4.34339,-4.08096 4.31048,-12.54482 -0.0657,-16.9211 l -3.08955,-3.08949 H 253.8693 c -96.57305,0 -93.57858,-0.23535 -95.72093,7.52358 -1.60401,5.80923 0.24233,11.90883 4.27146,14.11128 2.73012,1.49238 15.32063,1.69716 90.674,1.47486 l 87.50362,-0.25815 z"
     id="path1444" />
</svg>
